<svg xmlns="http://www.w3.org/2000/svg" xmlns:xlink="http://www.w3.org/1999/xlink" width="400" zoomAndPan="magnify" viewBox="0 0 300 299.999988" height="400" preserveAspectRatio="xMidYMid meet" version="1.0"><defs><g/><clipPath id="64deb9bc9e"><path d="M 0 45.207031 L 299 45.207031 L 299 222.390625 L 0 222.390625 Z M 0 45.207031 " clip-rule="nonzero"/></clipPath><clipPath id="ca08841ad3"><path d="M 132.886719 45.207031 C 171.648438 45.207031 201.546875 70.125 213.730469 100.578125 C 220.375 98.363281 227.570312 97.253906 235.324219 97.253906 C 270.207031 97.253906 299 126.046875 299 160.929688 C 299 196.367188 271.3125 222.390625 238.089844 222.390625 L 66.445312 222.390625 C 22.148438 222.390625 0.554688 200.796875 0.554688 170.34375 C 0.554688 141.550781 22.703125 117.742188 50.386719 115.527344 C 58.136719 77.320312 88.59375 45.207031 132.886719 45.207031 Z M 132.886719 45.207031 " clip-rule="nonzero"/></clipPath><clipPath id="481962dc38"><path d="M 0.480469 0.207031 L 299 0.207031 L 299 177.390625 L 0.480469 177.390625 Z M 0.480469 0.207031 " clip-rule="nonzero"/></clipPath><clipPath id="00f1d701a3"><path d="M 132.886719 0.207031 C 171.648438 0.207031 201.546875 25.125 213.730469 55.578125 C 220.375 53.363281 227.570312 52.253906 235.324219 52.253906 C 270.207031 52.253906 299 81.046875 299 115.929688 C 299 151.367188 271.3125 177.390625 238.089844 177.390625 L 66.445312 177.390625 C 22.148438 177.390625 0.554688 155.796875 0.554688 125.34375 C 0.554688 96.550781 22.703125 72.742188 50.386719 70.527344 C 58.136719 32.320312 88.59375 0.207031 132.886719 0.207031 Z M 132.886719 0.207031 " clip-rule="nonzero"/></clipPath><clipPath id="f328830051"><rect x="0" width="299" y="0" height="178"/></clipPath><clipPath id="e83abfc2dd"><rect x="0" width="180" y="0" height="111"/></clipPath></defs><g clip-path="url(#64deb9bc9e)"><g clip-path="url(#ca08841ad3)"><g transform="matrix(1, 0, 0, 1, -0.000000000000000056, 45)"><g clip-path="url(#f328830051)"><g clip-path="url(#481962dc38)"><g clip-path="url(#00f1d701a3)"><path fill="#f2600c" d="M 0 0.207031 L 299 0.207031 L 299 177.390625 L 0 177.390625 Z M 0 0.207031 " fill-opacity="1" fill-rule="nonzero"/></g></g></g></g></g></g><g transform="matrix(1, 0, 0, 1, 60, 96)"><g clip-path="url(#e83abfc2dd)"><g fill="#ffffff" fill-opacity="1"><g transform="translate(0.0703136, 86.149138)"><g><path d="M 58.328125 -16.59375 L 45.703125 -16.59375 L 45.703125 0 L 39.21875 0 L 39.21875 -16.59375 L 3.609375 -16.59375 L 3.609375 -21.28125 L 37.046875 -63.109375 L 44.265625 -63.109375 L 11.984375 -22.359375 L 39.390625 -22.359375 L 39.390625 -36.96875 L 45.703125 -36.96875 L 45.703125 -22.359375 L 58.328125 -22.359375 Z M 58.328125 -16.59375 "/></g></g></g><g fill="#ffffff" fill-opacity="1"><g transform="translate(59.653148, 86.149138)"><g><path d="M 29.84375 0.546875 C 24.976562 0.546875 20.632812 -0.742188 16.8125 -3.328125 C 13 -5.921875 10.023438 -9.632812 7.890625 -14.46875 C 5.753906 -19.3125 4.6875 -25.007812 4.6875 -31.5625 C 4.6875 -38.101562 5.753906 -43.789062 7.890625 -48.625 C 10.023438 -53.46875 13 -57.179688 16.8125 -59.765625 C 20.632812 -62.359375 24.976562 -63.65625 29.84375 -63.65625 C 34.707031 -63.65625 39.046875 -62.359375 42.859375 -59.765625 C 46.679688 -57.179688 49.671875 -53.46875 51.828125 -48.625 C 53.992188 -43.789062 55.078125 -38.101562 55.078125 -31.5625 C 55.078125 -25.007812 53.992188 -19.3125 51.828125 -14.46875 C 49.671875 -9.632812 46.679688 -5.921875 42.859375 -3.328125 C 39.046875 -0.742188 34.707031 0.546875 29.84375 0.546875 Z M 29.84375 -5.40625 C 33.507812 -5.40625 36.738281 -6.425781 39.53125 -8.46875 C 42.320312 -10.519531 44.5 -13.5 46.0625 -17.40625 C 47.625 -21.3125 48.40625 -26.03125 48.40625 -31.5625 C 48.40625 -37.082031 47.625 -41.796875 46.0625 -45.703125 C 44.5 -49.609375 42.320312 -52.582031 39.53125 -54.625 C 36.738281 -56.675781 33.507812 -57.703125 29.84375 -57.703125 C 26.175781 -57.703125 22.941406 -56.675781 20.140625 -54.625 C 17.347656 -52.582031 15.171875 -49.609375 13.609375 -45.703125 C 12.046875 -41.796875 11.265625 -37.082031 11.265625 -31.5625 C 11.265625 -26.03125 12.046875 -21.3125 13.609375 -17.40625 C 15.171875 -13.5 17.347656 -10.519531 20.140625 -8.46875 C 22.941406 -6.425781 26.175781 -5.40625 29.84375 -5.40625 Z M 29.84375 -5.40625 "/></g></g></g><g fill="#ffffff" fill-opacity="1"><g transform="translate(119.32614, 86.149138)"><g><path d="M 58.328125 -16.59375 L 45.703125 -16.59375 L 45.703125 0 L 39.21875 0 L 39.21875 -16.59375 L 3.609375 -16.59375 L 3.609375 -21.28125 L 37.046875 -63.109375 L 44.265625 -63.109375 L 11.984375 -22.359375 L 39.390625 -22.359375 L 39.390625 -36.96875 L 45.703125 -36.96875 L 45.703125 -22.359375 L 58.328125 -22.359375 Z M 58.328125 -16.59375 "/></g></g></g></g></g></svg>