<?xml version="1.0" encoding="UTF-8"?>
<svg id="Layer_2" data-name="Layer 2" xmlns="http://www.w3.org/2000/svg" viewBox="0 0 154.5 154.5">
  <defs>
    <style>
      .cls-1 {
        fill: #f05f0b;
      }
    </style>
  </defs>
  <g id="Layer_27" data-name="Layer 27">
    <g>
      <path class="cls-1" d="M4.5,87.8c2.5,0,4.5-2,4.5-4.5v-12.1c0-2.5-2-4.5-4.5-4.5s-4.5,2-4.5,4.5v12.1c0,2.5,2,4.5,4.5,4.5Z"/>
      <path class="cls-1" d="M4.5,57.6c2.5,0,4.5-2,4.5-4.5v-12.1c0-2.5-2-4.5-4.5-4.5s-4.5,2-4.5,4.5v12.1c0,2.5,2,4.5,4.5,4.5Z"/>
      <path class="cls-1" d="M16.6,6.3h-6C4.7,6.3,0,11.1,0,16.9v6c0,2.5,2,4.5,4.5,4.5s4.5-2,4.5-4.5v-6c0-.8.7-1.5,1.5-1.5h6c2.5,0,4.5-2,4.5-4.5s-2-4.5-4.5-4.5Z"/>
      <path class="cls-1" d="M34.7,15.4h12.1c2.5,0,4.5-2,4.5-4.5s-2-4.5-4.5-4.5h-12.1c-2.5,0-4.5,2-4.5,4.5s2,4.5,4.5,4.5Z"/>
      <path class="cls-1" d="M46.8,139.1h-12.1c-2.5,0-4.5,2-4.5,4.5s2,4.5,4.5,4.5h12.1c2.5,0,4.5-2,4.5-4.5s-2-4.5-4.5-4.5Z"/>
      <path class="cls-1" d="M4.5,118c2.5,0,4.5-2,4.5-4.5v-12.1c0-2.5-2-4.5-4.5-4.5s-4.5,2-4.5,4.5v12.1c0,2.5,2,4.5,4.5,4.5Z"/>
      <path class="cls-1" d="M16.6,139.1h-6c-.8,0-1.5-.7-1.5-1.5v-6c0-2.5-2-4.5-4.5-4.5s-4.5,2-4.5,4.5v6c0,5.8,4.7,10.6,10.6,10.6h6c2.5,0,4.5-2,4.5-4.5s-2-4.5-4.5-4.5Z"/>
      <path class="cls-1" d="M144,6.3h-62.2v-1.8c0-2.5-2-4.5-4.5-4.5s-4.5,2-4.5,4.5v1.8h-7.8c-2.5,0-4.5,2-4.5,4.5s2,4.5,4.5,4.5h7.8v75.4h-20.8l1.3-1.3c1.8-1.8,1.8-4.6,0-6.4s-4.6-1.8-6.4,0l-9.1,9.1c-1.8,1.8-1.8,4.6,0,6.4l9.1,9.1c1.8,1.8,4.6,1.8,6.4,0s1.8-4.6,0-6.4l-1.3-1.3h20.8v39.2h-7.8c-2.5,0-4.5,2-4.5,4.5s2,4.5,4.5,4.5h7.8v1.8c0,2.5,2,4.5,4.5,4.5s4.5-2,4.5-4.5v-1.8h62.2c5.8,0,10.6-4.7,10.6-10.6V16.9c0-5.8-4.7-10.6-10.6-10.6h0ZM116.7,62.4l-9.1,9.1c-1.8,1.8-4.6,1.8-6.4,0s-1.8-4.6,0-6.4l1.3-1.3h-20.8v-9.1h20.8l-1.3-1.3c-1.8-1.8-1.8-4.6,0-6.4s4.6-1.8,6.4,0l9.1,9.1c1.8,1.8,1.8,4.6,0,6.4h0Z"/>
    </g>
  </g>
</svg>