<?xml version="1.0" encoding="UTF-8"?>
<svg id="Layer_2" data-name="Layer 2" xmlns="http://www.w3.org/2000/svg" viewBox="0 0 127.4 159.8">
  <defs>
    <style>
      .cls-1 {
        fill: #fff;
      }

      .cls-1, .cls-2 {
        fill-rule: evenodd;
      }

      .cls-2 {
        fill: #f15f0b;
      }
    </style>
  </defs>
  <g id="Layer_1-2" data-name="Layer 1">
    <g id="Layer_1-3" data-name="Layer_1">
      <path class="cls-2" d="M67.6,158.6c25.7-16.3,54.9-31.1,59.5-60.9l.3-76.2c0-3.1-2.6-5.7-6.1-6.1-20.9-1.9-38.9-6.8-54.2-14.6s-4.7-1.1-6.8,0C45,8.7,27,13.6,6.1,15.5,2.6,15.8,0,18.4,0,21.5l.3,76.2c4.6,29.8,33.8,44.7,59.5,60.9,2.4,1.5,5.5,1.5,7.9,0h0Z"/>
      <path class="cls-1" d="M114,53.2l-61.4,62.7c-2.3,2.3-6.2,1.8-7.9-1l-31.3-29.3c-1.4-2.4-.6-5.5,1.8-6.9l6.1-5.5c2.4-1.4,5.5-.6,6.8,1.8l16.7,16c3,1.8,5.6,2.1,7.9-.2l48.2-50.7c2-2,5.1-2,7.1,0l6.1,6.1c2,2,2,5.1,0,7.1Z"/>
    </g>
  </g>
</svg>