<?xml version="1.0" encoding="UTF-8"?>
<svg id="Layer_2" data-name="Layer 2" xmlns="http://www.w3.org/2000/svg" viewBox="0 0 139.9 157.5">
  <defs>
    <style>
      .cls-1 {
        fill: #f15f0b;
      }
    </style>
  </defs>
  <g id="Layer_1-2" data-name="Layer 1">
    <g>
      <path class="cls-1" d="M0,92.2V0h25.3v92.2H0Z"/>
      <path class="cls-1" d="M0,118.6v-14.6h25.3v14.4c0,7.4,6.2,13.3,13.6,12.9s12.2-6.3,12.2-13.3,0-9.3,0-14h25.3c0,4.9,0,9.7,0,14.6,0,17.9-14.7,34.6-32,37.4C21.8,159.7,0,141.5,0,118.6h0Z"/>
      <path class="cls-1" d="M50.8,92.2v-48.7c0-17.9,14.7-34.6,32-37.4,22.5-3.7,44.3,14.5,44.3,37.4v69.4l5-1.8c5.2-1.9,9.8,3.9,6.8,8.5-7,10.6-14.3,24-19.6,34.7s-3.3,3.4-5.7,3.1,0,0,0,0c-2.1-.3-3.8-1.6-4.9-3.4-6.7-11.3-12.2-23.8-19.1-34.3-3-4.6,1.6-10.4,6.8-8.5l5.5,2V44c0,0,0-.1,0-.2,0-7.4-6.2-13.3-13.6-12.9s-12.2,6.3-12.2,13.3v48s-25.3,0-25.3,0Z"/>
    </g>
  </g>
</svg>