<svg xmlns="http://www.w3.org/2000/svg" xmlns:xlink="http://www.w3.org/1999/xlink" width="100" zoomAndPan="magnify" viewBox="0 0 75 74.999997" height="100" preserveAspectRatio="xMidYMid meet" version="1.0"><path fill="#9d5025" d="M 26.003906 37.632812 L 23.238281 54.535156 L 15.992188 56.226562 L 13.589844 55 L 13.589844 37.632812 Z M 26.003906 37.632812 " fill-opacity="1" fill-rule="evenodd"/><path fill="#6b3b19" d="M 61.574219 31.679688 L 37.574219 33.417969 L 13.574219 31.679688 L 37.574219 8.054688 Z M 61.574219 31.679688 " fill-opacity="1" fill-rule="evenodd"/><path fill="#f58534" d="M 42.351562 37.632812 L 15.992188 37.632812 L 15.992188 56.226562 L 42.351562 50.070312 Z M 42.351562 37.632812 " fill-opacity="1" fill-rule="evenodd"/><path fill="#9d5025" d="M 29.175781 37.632812 L 30.039062 56.644531 L 21.597656 59.085938 L 18.652344 57.582031 L 18.652344 37.632812 Z M 29.175781 37.632812 " fill-opacity="1" fill-rule="evenodd"/><path fill="#f58534" d="M 50.25 37.632812 L 21.597656 37.632812 L 21.597656 59.082031 L 50.25 50.78125 Z M 50.25 37.632812 " fill-opacity="1" fill-rule="evenodd"/><path fill="#9d5025" d="M 35.179688 37.632812 L 35.179688 60.203125 L 28.597656 62.65625 L 24.894531 60.765625 L 24.894531 37.632812 Z M 35.179688 37.632812 " fill-opacity="1" fill-rule="evenodd"/><path fill="#f58534" d="M 56.492188 37.632812 L 28.597656 37.632812 L 28.597656 62.65625 L 56.492188 52.242188 Z M 56.492188 37.632812 " fill-opacity="1" fill-rule="evenodd"/><path fill="#9d5025" d="M 32.789062 64.800781 L 32.789062 37.632812 L 50.957031 37.632812 L 59.671875 55.957031 L 37.566406 67.242188 Z M 32.789062 64.800781 " fill-opacity="1" fill-rule="evenodd"/><path fill="#f58534" d="M 37.566406 67.242188 L 37.566406 37.632812 L 61.566406 37.632812 L 61.566406 54.992188 Z M 61.574219 31.679688 L 37.574219 27.464844 L 37.574219 8.054688 L 61.574219 20.300781 Z M 61.574219 31.679688 " fill-opacity="1" fill-rule="evenodd"/><path fill="#9d5025" d="M 13.574219 31.679688 L 37.574219 27.464844 L 37.574219 8.054688 L 13.574219 20.300781 Z M 13.574219 31.679688 " fill-opacity="1" fill-rule="evenodd"/></svg>