<svg xmlns="http://www.w3.org/2000/svg" id="Layer_1" viewBox="0 0 1000 1000" data-name="Layer 1"><path d="m750.07 505h-500.14c-82.12 0-148.93-66.81-148.93-148.92 0-79.91 63.25-145.31 142.32-148.79a149 149 0 0 1 283.88-23.59c4.36-.38 8.77-.57 13.19-.57a148.84 148.84 0 0 1 116.81 56.53 148.35 148.35 0 0 1 92.87-32.52c82.12 0 148.93 66.86 148.93 148.94s-66.81 148.92-148.93 148.92zm-500-277.86h-.17a129.08 129.08 0 0 0 -128.9 128.94c0 71.09 57.83 128.92 128.93 128.92h500.14c71.1 0 128.93-57.83 128.93-128.92a128.91 128.91 0 0 0 -216.67-94.46 10 10 0 0 1 -15.09-1.72 129.1 129.1 0 0 0 -125.24-55.46 10 10 0 0 1 -10.91-6.71 129 129 0 0 0 -249.55 21 10 10 0 0 1 -9.88 8.44h-1.56z" fill="#f2600c"/><path d="m280.53 734.19a46.21 46.21 0 1 1 46.2-46.2 46.25 46.25 0 0 1 -46.2 46.2zm0-72.41a26.21 26.21 0 1 0 26.2 26.22 26.23 26.23 0 0 0 -26.2-26.22z" fill="#f2600c"/><path d="m719.47 734.19a46.21 46.21 0 1 1 46.2-46.2 46.25 46.25 0 0 1 -46.2 46.2zm0-72.41a26.21 26.21 0 1 0 26.2 26.22 26.23 26.23 0 0 0 -26.2-26.22z" fill="#f2600c"/><path d="m280.53 776.45a88.47 88.47 0 1 1 88.47-88.45 88.56 88.56 0 0 1 -88.47 88.45zm0-156.93a68.47 68.47 0 1 0 68.47 68.48 68.54 68.54 0 0 0 -68.47-68.48z" fill="#f2600c"/><path d="m719.47 776.45a88.47 88.47 0 1 1 88.47-88.45 88.56 88.56 0 0 1 -88.47 88.45zm0-156.93a68.47 68.47 0 1 0 68.47 68.48 68.55 68.55 0 0 0 -68.47-68.48z" fill="#f2600c"/><path d="m500 861.29a65.52 65.52 0 1 1 65.52-65.52 65.59 65.59 0 0 1 -65.52 65.52zm0-111a45.52 45.52 0 1 0 45.52 45.51 45.56 45.56 0 0 0 -45.52-45.54z" fill="#f2600c"/><path d="m500 910a114.23 114.23 0 1 1 114.23-114.23 114.36 114.36 0 0 1 -114.23 114.23zm0-208.45a94.23 94.23 0 1 0 94.23 94.22 94.33 94.33 0 0 0 -94.23-94.22z" fill="#f2600c"/><path d="m280.52 619.52a10 10 0 0 1 -10-10v-159a10 10 0 0 1 20 0v159a10 10 0 0 1 -10 10z" fill="#f2600c"/><path d="m500 701.54a10 10 0 0 1 -10-10v-259.33a10 10 0 0 1 20 0v259.33a10 10 0 0 1 -10 10z" fill="#f2600c"/><path d="m719.47 619.52a10 10 0 0 1 -10-10v-159a10 10 0 0 1 20 0v159a10 10 0 0 1 -10 10z" fill="#f2600c"/><path d="m280.53 460.5a46.2 46.2 0 1 1 46.2-46.2 46.25 46.25 0 0 1 -46.2 46.2zm0-72.4a26.2 26.2 0 1 0 26.2 26.2 26.23 26.23 0 0 0 -26.2-26.2z" fill="#f2600c"/><path d="m500 442.21a65.52 65.52 0 1 1 65.52-65.52 65.59 65.59 0 0 1 -65.52 65.52zm0-111a45.52 45.52 0 1 0 45.52 45.52 45.57 45.57 0 0 0 -45.52-45.56z" fill="#f2600c"/><path d="m719.47 460.5a46.2 46.2 0 1 1 46.2-46.2 46.25 46.25 0 0 1 -46.2 46.2zm0-72.4a26.2 26.2 0 1 0 26.2 26.2 26.23 26.23 0 0 0 -26.2-26.2z" fill="#f2600c"/></svg>