<svg xmlns="http://www.w3.org/2000/svg" xmlns:xlink="http://www.w3.org/1999/xlink" width="100" zoomAndPan="magnify" viewBox="0 0 75 74.999997" height="100" preserveAspectRatio="xMidYMid meet" version="1.0"><path fill="#aecbfa" d="M 55.78125 44.375 L 23.96875 62.75 L 20.90625 57.5 L 52.75 39.09375 Z M 55.78125 44.375 " fill-opacity="1" fill-rule="evenodd"/><path fill="#aecbfa" d="M 23.84375 56.75 L 23.84375 20 L 29.6875 20 L 29.6875 52.34375 Z M 23.84375 56.75 " fill-opacity="1" fill-rule="evenodd"/><path fill="#aecbfa" d="M 29.875 30.28125 L 29.0625 22.90625 L 60.90625 41.25 L 57.875 46.5 Z M 29.875 30.28125 " fill-opacity="1" fill-rule="evenodd"/><path fill="#4285f4" d="M 44.96875 32.0625 L 29.0625 22.90625 L 29.875 30.28125 L 34.59375 32.96875 C 36.304688 33.578125 38.070312 33.804688 39.878906 33.648438 C 41.691406 33.488281 43.386719 32.960938 44.96875 32.0625 Z M 44.96875 32.0625 " fill-opacity="1" fill-rule="evenodd"/><path fill="#aecbfa" d="M 25.40625 25.90625 C 25.191406 25.535156 24.996094 25.152344 24.824219 24.757812 C 24.652344 24.363281 24.5 23.960938 24.371094 23.550781 C 24.242188 23.140625 24.132812 22.726562 24.050781 22.304688 C 23.964844 21.882812 23.90625 21.457031 23.867188 21.027344 C 23.832031 20.601562 23.816406 20.171875 23.828125 19.742188 C 23.835938 19.3125 23.867188 18.882812 23.925781 18.457031 C 23.980469 18.03125 24.058594 17.609375 24.164062 17.191406 C 24.265625 16.773438 24.390625 16.363281 24.535156 15.957031 C 24.683594 15.554688 24.851562 15.160156 25.042969 14.773438 C 25.234375 14.386719 25.445312 14.015625 25.675781 13.652344 C 25.90625 13.289062 26.15625 12.941406 26.425781 12.605469 C 26.695312 12.269531 26.980469 11.949219 27.285156 11.644531 C 27.589844 11.339844 27.910156 11.054688 28.246094 10.785156 C 28.582031 10.515625 28.929688 10.265625 29.292969 10.035156 C 29.65625 9.804688 30.027344 9.59375 30.414062 9.402344 C 30.800781 9.214844 31.195312 9.046875 31.597656 8.898438 C 32.003906 8.75 32.414062 8.628906 32.832031 8.523438 C 33.25 8.421875 33.671875 8.34375 34.097656 8.289062 C 34.523438 8.230469 34.953125 8.199219 35.382812 8.191406 C 35.8125 8.179688 36.242188 8.195312 36.671875 8.234375 C 37.097656 8.269531 37.523438 8.332031 37.945312 8.414062 C 38.367188 8.5 38.78125 8.605469 39.191406 8.734375 C 39.601562 8.867188 40.003906 9.015625 40.398438 9.191406 C 40.792969 9.363281 41.175781 9.558594 41.546875 9.773438 C 41.917969 9.988281 42.277344 10.222656 42.625 10.476562 C 42.972656 10.730469 43.304688 11.003906 43.621094 11.296875 C 43.9375 11.585938 44.238281 11.894531 44.519531 12.214844 C 44.804688 12.539062 45.070312 12.878906 45.316406 13.230469 C 45.5625 13.582031 45.789062 13.945312 45.996094 14.324219 C 46.203125 14.703125 46.386719 15.089844 46.550781 15.484375 C 46.714844 15.882812 46.859375 16.289062 46.980469 16.703125 C 47.097656 17.113281 47.195312 17.53125 47.269531 17.957031 C 47.34375 18.378906 47.394531 18.804688 47.425781 19.234375 C 47.453125 19.664062 47.457031 20.09375 47.4375 20.523438 C 47.417969 20.953125 47.375 21.378906 47.308594 21.804688 C 47.246094 22.230469 47.15625 22.648438 47.042969 23.066406 C 46.933594 23.480469 46.796875 23.890625 46.640625 24.289062 C 46.484375 24.691406 46.308594 25.082031 46.109375 25.460938 C 45.910156 25.84375 45.691406 26.210938 45.453125 26.570312 C 45.214844 26.925781 44.957031 27.269531 44.679688 27.601562 C 44.402344 27.929688 44.109375 28.242188 43.796875 28.539062 C 43.488281 28.835938 43.160156 29.117188 42.820312 29.378906 C 42.476562 29.640625 42.125 29.882812 41.753906 30.105469 C 41.386719 30.328125 41.007812 30.527344 40.617188 30.710938 C 40.230469 30.890625 39.832031 31.050781 39.421875 31.1875 C 39.015625 31.328125 38.601562 31.441406 38.183594 31.535156 C 37.761719 31.628906 37.339844 31.695312 36.910156 31.742188 C 36.484375 31.789062 36.054688 31.8125 35.625 31.8125 C 34.589844 31.808594 33.574219 31.671875 32.574219 31.402344 C 31.574219 31.132812 30.625 30.738281 29.730469 30.21875 C 28.832031 29.699219 28.019531 29.078125 27.285156 28.34375 C 26.554688 27.613281 25.925781 26.800781 25.40625 25.90625 Z M 40.625 17.15625 C 40.113281 16.269531 39.414062 15.566406 38.523438 15.054688 C 37.636719 14.539062 36.679688 14.28125 35.65625 14.28125 C 35.28125 14.277344 34.90625 14.3125 34.535156 14.386719 C 34.167969 14.457031 33.808594 14.566406 33.457031 14.707031 C 33.109375 14.851562 32.777344 15.027344 32.464844 15.234375 C 32.148438 15.441406 31.859375 15.679688 31.59375 15.945312 C 31.324219 16.210938 31.085938 16.5 30.875 16.8125 C 30.667969 17.125 30.488281 17.457031 30.34375 17.804688 C 30.199219 18.152344 30.089844 18.511719 30.015625 18.878906 C 29.941406 19.25 29.90625 19.625 29.90625 20 C 29.878906 20.394531 29.886719 20.789062 29.941406 21.179688 C 29.992188 21.570312 30.082031 21.953125 30.214844 22.328125 C 30.34375 22.699219 30.511719 23.054688 30.71875 23.394531 C 30.921875 23.734375 31.160156 24.046875 31.425781 24.335938 C 31.695312 24.625 31.992188 24.886719 32.316406 25.113281 C 32.636719 25.34375 32.980469 25.535156 33.34375 25.695312 C 33.707031 25.851562 34.078125 25.972656 34.46875 26.050781 C 34.855469 26.132812 35.246094 26.171875 35.640625 26.171875 C 36.035156 26.171875 36.425781 26.132812 36.8125 26.050781 C 37.203125 25.972656 37.574219 25.851562 37.9375 25.695312 C 38.300781 25.535156 38.644531 25.34375 38.964844 25.113281 C 39.289062 24.886719 39.585938 24.625 39.855469 24.335938 C 40.121094 24.046875 40.359375 23.734375 40.5625 23.394531 C 40.769531 23.054688 40.933594 22.699219 41.066406 22.328125 C 41.199219 21.953125 41.289062 21.570312 41.339844 21.179688 C 41.394531 20.789062 41.402344 20.394531 41.375 20 C 41.382812 18.984375 41.132812 18.035156 40.625 17.15625 Z M 40.625 17.15625 " fill-opacity="1" fill-rule="evenodd"/><path fill="#4285f4" d="M 23.84375 40.4375 L 23.84375 56.75 L 29.6875 52.34375 L 29.6875 47.25 C 29.285156 45.726562 28.574219 44.367188 27.546875 43.171875 C 26.523438 41.976562 25.289062 41.066406 23.84375 40.4375 Z M 23.84375 40.4375 " fill-opacity="1" fill-rule="evenodd"/><path fill="#4285f4" d="M 41.65625 52.53125 L 55.78125 44.375 L 48.875 41.25 L 44.96875 43.75 C 43.878906 44.980469 43.050781 46.367188 42.480469 47.910156 C 41.90625 49.453125 41.632812 51.042969 41.65625 52.6875 Z M 41.65625 52.53125 " fill-opacity="1" fill-rule="evenodd"/><path fill="#aecbfa" d="M 7.84375 58.4375 C 7.453125 57.765625 7.132812 57.066406 6.882812 56.332031 C 6.632812 55.597656 6.457031 54.847656 6.355469 54.078125 C 6.253906 53.308594 6.226562 52.539062 6.277344 51.765625 C 6.328125 50.988281 6.453125 50.230469 6.652344 49.480469 C 6.851562 48.730469 7.125 48.007812 7.464844 47.3125 C 7.808594 46.617188 8.21875 45.960938 8.691406 45.347656 C 9.160156 44.730469 9.691406 44.167969 10.273438 43.660156 C 10.855469 43.148438 11.484375 42.699219 12.15625 42.3125 C 13.503906 41.519531 14.953125 41.023438 16.503906 40.816406 C 18.054688 40.609375 19.585938 40.714844 21.09375 41.125 C 21.5625 41.25 22.019531 41.398438 22.472656 41.582031 C 22.921875 41.761719 23.359375 41.96875 23.78125 42.199219 C 24.207031 42.433594 24.617188 42.695312 25.007812 42.976562 C 25.402344 43.261719 25.773438 43.570312 26.128906 43.898438 C 26.484375 44.230469 26.816406 44.578125 27.128906 44.949219 C 27.441406 45.320312 27.726562 45.710938 27.992188 46.117188 C 28.253906 46.523438 28.492188 46.945312 28.703125 47.378906 C 28.917969 47.816406 29.101562 48.261719 29.257812 48.71875 C 29.414062 49.179688 29.542969 49.644531 29.644531 50.121094 C 29.742188 50.59375 29.8125 51.070312 29.855469 51.554688 C 29.894531 52.039062 29.90625 52.519531 29.886719 53.003906 C 29.867188 53.488281 29.820312 53.96875 29.742188 54.449219 C 29.664062 54.925781 29.554688 55.398438 29.421875 55.863281 C 29.285156 56.328125 29.121094 56.785156 28.929688 57.226562 C 28.738281 57.671875 28.519531 58.105469 28.273438 58.523438 C 28.027344 58.941406 27.757812 59.34375 27.464844 59.726562 C 27.167969 60.113281 26.851562 60.476562 26.511719 60.824219 C 26.171875 61.167969 25.8125 61.492188 25.433594 61.792969 C 25.054688 62.09375 24.660156 62.371094 24.246094 62.625 C 23.832031 62.878906 23.40625 63.105469 22.964844 63.304688 C 22.523438 63.503906 22.070312 63.675781 21.609375 63.820312 C 21.144531 63.964844 20.675781 64.082031 20.199219 64.167969 C 19.722656 64.253906 19.242188 64.3125 18.757812 64.339844 C 18.277344 64.367188 17.792969 64.367188 17.308594 64.335938 C 16.824219 64.300781 16.34375 64.242188 15.871094 64.152344 C 15.394531 64.058594 14.925781 63.941406 14.464844 63.792969 C 14.003906 63.644531 13.550781 63.46875 13.113281 63.261719 C 12.671875 63.058594 12.246094 62.828125 11.835938 62.574219 C 11.425781 62.316406 11.03125 62.035156 10.65625 61.730469 C 10.277344 61.425781 9.921875 61.101562 9.585938 60.75 C 9.25 60.402344 8.933594 60.035156 8.644531 59.648438 C 8.351562 59.261719 8.085938 58.859375 7.84375 58.4375 Z M 23 49.65625 C 22.640625 48.972656 22.15625 48.390625 21.554688 47.90625 C 20.949219 47.421875 20.277344 47.078125 19.53125 46.875 C 18.984375 46.726562 18.425781 46.660156 17.859375 46.675781 C 17.289062 46.695312 16.738281 46.792969 16.199219 46.976562 C 15.660156 47.15625 15.160156 47.414062 14.699219 47.742188 C 14.238281 48.074219 13.835938 48.464844 13.488281 48.917969 C 13.144531 49.367188 12.871094 49.859375 12.671875 50.390625 C 12.472656 50.921875 12.355469 51.472656 12.320312 52.039062 C 12.285156 52.605469 12.335938 53.164062 12.464844 53.71875 C 12.597656 54.269531 12.808594 54.792969 13.09375 55.28125 C 13.28125 55.605469 13.5 55.910156 13.75 56.191406 C 14 56.472656 14.273438 56.730469 14.570312 56.957031 C 14.871094 57.1875 15.1875 57.382812 15.527344 57.546875 C 15.863281 57.714844 16.214844 57.84375 16.578125 57.941406 C 16.941406 58.039062 17.308594 58.097656 17.683594 58.121094 C 18.0625 58.144531 18.433594 58.132812 18.808594 58.082031 C 19.179688 58.03125 19.542969 57.945312 19.898438 57.824219 C 20.257812 57.703125 20.597656 57.546875 20.921875 57.359375 C 21.246094 57.171875 21.550781 56.953125 21.832031 56.703125 C 22.113281 56.453125 22.371094 56.179688 22.597656 55.882812 C 22.828125 55.582031 23.023438 55.265625 23.1875 54.925781 C 23.355469 54.589844 23.484375 54.238281 23.582031 53.875 C 23.679688 53.511719 23.738281 53.144531 23.761719 52.765625 C 23.785156 52.390625 23.773438 52.019531 23.722656 51.644531 C 23.671875 51.273438 23.585938 50.910156 23.464844 50.554688 C 23.34375 50.195312 23.1875 49.855469 23 49.53125 Z M 23 49.65625 " fill-opacity="1" fill-rule="evenodd"/><path fill="#aecbfa" d="M 44.78125 57.375 C 44.265625 56.476562 43.878906 55.53125 43.613281 54.53125 C 43.34375 53.535156 43.210938 52.519531 43.210938 51.484375 C 43.210938 50.449219 43.34375 49.433594 43.613281 48.4375 C 43.878906 47.4375 44.265625 46.492188 44.78125 45.59375 C 45.167969 44.921875 45.621094 44.296875 46.132812 43.714844 C 46.640625 43.132812 47.207031 42.605469 47.820312 42.136719 C 48.433594 41.664062 49.089844 41.257812 49.785156 40.914062 C 50.480469 40.570312 51.199219 40.296875 51.949219 40.097656 C 52.695312 39.894531 53.457031 39.769531 54.230469 39.714844 C 55.003906 39.664062 55.773438 39.6875 56.542969 39.785156 C 57.308594 39.882812 58.0625 40.058594 58.796875 40.304688 C 59.53125 40.550781 60.234375 40.867188 60.90625 41.25 C 61.578125 41.636719 62.203125 42.089844 62.785156 42.601562 C 63.367188 43.109375 63.894531 43.675781 64.363281 44.289062 C 64.835938 44.90625 65.242188 45.558594 65.585938 46.253906 C 65.925781 46.949219 66.199219 47.671875 66.398438 48.421875 C 66.597656 49.167969 66.722656 49.929688 66.773438 50.703125 C 66.824219 51.476562 66.800781 52.246094 66.699219 53.015625 C 66.597656 53.78125 66.421875 54.535156 66.171875 55.269531 C 65.925781 56 65.605469 56.703125 65.21875 57.375 C 64.960938 57.820312 64.675781 58.246094 64.359375 58.65625 C 64.046875 59.0625 63.707031 59.449219 63.339844 59.8125 C 62.976562 60.179688 62.589844 60.515625 62.179688 60.828125 C 61.769531 61.140625 61.34375 61.429688 60.898438 61.683594 C 60.449219 61.941406 59.988281 62.167969 59.511719 62.367188 C 59.035156 62.5625 58.550781 62.726562 58.050781 62.859375 C 57.554688 62.992188 57.050781 63.09375 56.539062 63.160156 C 56.027344 63.226562 55.515625 63.261719 55 63.261719 C 54.484375 63.261719 53.972656 63.226562 53.460938 63.160156 C 52.949219 63.09375 52.445312 62.992188 51.949219 62.859375 C 51.449219 62.726562 50.964844 62.5625 50.488281 62.367188 C 50.011719 62.167969 49.550781 61.941406 49.101562 61.683594 C 48.65625 61.429688 48.230469 61.140625 47.820312 60.828125 C 47.410156 60.515625 47.023438 60.179688 46.660156 59.8125 C 46.292969 59.449219 45.953125 59.0625 45.640625 58.65625 C 45.324219 58.246094 45.039062 57.820312 44.78125 57.375 Z M 59.96875 48.59375 C 59.441406 47.726562 58.742188 47.027344 57.875 46.5 C 57.546875 46.316406 57.203125 46.164062 56.847656 46.042969 C 56.488281 45.925781 56.125 45.84375 55.75 45.796875 C 55.375 45.75 55 45.738281 54.625 45.765625 C 54.25 45.789062 53.878906 45.851562 53.515625 45.953125 C 53.152344 46.050781 52.800781 46.183594 52.464844 46.351562 C 52.128906 46.515625 51.808594 46.714844 51.511719 46.945312 C 51.210938 47.171875 50.9375 47.429688 50.6875 47.710938 C 50.441406 47.996094 50.21875 48.300781 50.03125 48.625 C 49.53125 49.511719 49.28125 50.464844 49.28125 51.484375 C 49.28125 52.503906 49.53125 53.457031 50.03125 54.34375 C 50.347656 54.890625 50.742188 55.375 51.21875 55.789062 C 51.695312 56.207031 52.226562 56.535156 52.8125 56.777344 C 53.398438 57.015625 54.007812 57.15625 54.636719 57.195312 C 55.269531 57.230469 55.890625 57.167969 56.5 57 C 57.230469 56.804688 57.898438 56.480469 58.5 56.019531 C 59.101562 55.558594 59.589844 55 59.96875 54.34375 C 60.46875 53.449219 60.71875 52.492188 60.71875 51.46875 C 60.71875 50.445312 60.46875 49.488281 59.96875 48.59375 Z M 59.96875 48.59375 " fill-opacity="1" fill-rule="evenodd"/><path fill="#669df6" d="M 29.65625 50.46875 C 29.65625 50.46875 22.34375 56.71875 20.90625 57.5 L 29.84375 52.34375 C 29.828125 51.714844 29.765625 51.089844 29.65625 50.46875 Z M 29.65625 50.46875 " fill-opacity="1" fill-rule="evenodd"/><path fill="#669df6" d="M 31.71875 31.25 C 31.71875 31.25 29.875 21 29.875 20 L 29.875 30.28125 C 30.464844 30.621094 31.078125 30.902344 31.71875 31.125 Z M 31.71875 31.25 " fill-opacity="1" fill-rule="evenodd"/><path fill="#669df6" d="M 47.8125 42.09375 C 47.8125 42.09375 56.4375 45.6875 57.875 46.5 L 48.9375 41.375 C 48.53125 41.566406 48.15625 41.804688 47.8125 42.09375 Z M 47.8125 42.09375 " fill-opacity="1" fill-rule="evenodd"/></svg>