<svg xmlns="http://www.w3.org/2000/svg" width="507.538" height="507.537" viewBox="0 0 507.538 507.537"><path d="M480-437.847,277.076-234.924q-8.307,8.308-20.884,8.5a28.271,28.271,0,0,1-21.268-8.5A28.7,28.7,0,0,1,226.231-256a28.7,28.7,0,0,1,8.693-21.076L437.847-480,234.924-682.924q-8.308-8.307-8.5-20.884a28.271,28.271,0,0,1,8.5-21.268A28.7,28.7,0,0,1,256-733.769a28.7,28.7,0,0,1,21.076,8.693L480-522.153,682.924-725.076q8.307-8.308,20.884-8.5a28.271,28.271,0,0,1,21.268,8.5A28.7,28.7,0,0,1,733.769-704a28.7,28.7,0,0,1-8.693,21.076L522.153-480,725.076-277.076q8.308,8.307,8.5,20.884a28.271,28.271,0,0,1-8.5,21.268A28.7,28.7,0,0,1,704-226.231a28.7,28.7,0,0,1-21.076-8.693Z" transform="translate(-226.231 733.769)" fill="#fff"/></svg>