<?xml version="1.0" encoding="UTF-8"?>
<svg id="Layer_2" data-name="Layer 2" xmlns="http://www.w3.org/2000/svg" viewBox="0 0 121.2 148.4">
  <defs>
    <style>
      .cls-1 {
        fill: #f05f0b;
      }
    </style>
  </defs>
  <g id="Layer_27" data-name="Layer 27">
    <g>
      <path class="cls-1" d="M59.4,0C35.1,0,15.3,19.8,15.3,44.1v1.7h19.4v-1.7c0-13.6,11-24.6,24.6-24.6s24.6,11,24.6,24.6v1.7h19.4v-1.7c0-24.3-19.8-44.1-44.1-44.1Z"/>
      <path class="cls-1" d="M99.6,55.5H21.6c-11.9,0-21.6,9.7-21.6,21.6v66.5c0,2.7,2.2,4.9,4.9,4.9h111.5c2.7,0,4.9-2.2,4.9-4.9v-66.5c0-11.9-9.7-21.6-21.6-21.6ZM65.4,103.5v13.7c0,2.7-2.2,4.9-4.9,4.9s-4.9-2.2-4.9-4.9v-13.7c-4.3-1.9-7.2-6.1-7.2-11.1s5.4-12.1,12.1-12.1,12.1,5.4,12.1,12.1c0,5-3,9.2-7.2,11.1Z"/>
    </g>
  </g>
</svg>