<?xml version="1.0" encoding="UTF-8"?>
<svg id="Layer_2" data-name="Layer 2" xmlns="http://www.w3.org/2000/svg" viewBox="0 0 156.5 156.5">
  <defs>
    <style>
      .cls-1 {
        fill: #f05f0b;
      }
    </style>
  </defs>
  <g id="Layer_27" data-name="Layer 27">
    <g>
      <path class="cls-1" d="M109.7,39L78.3,0l-31.4,39L0,56.9l21.9,33.6c6.9-5,15.3-8,24.4-8,22.9,0,41.4,18.6,41.4,41.4s-.8,9.5-2.4,13.8l41.2,11.1,2.5-50,27.4-42-46.8-17.8Z"/>
      <path class="cls-1" d="M79,123.9c0-18-14.6-32.6-32.6-32.6s-32.6,14.6-32.6,32.6,14.6,32.6,32.6,32.6,32.6-14.6,32.6-32.6ZM42.4,136.4l-11.5-11.5,6.4-6.4,5,5,13-13,6.4,6.4-19.4,19.4Z"/>
    </g>
  </g>
</svg>