<svg width="18" height="119" viewBox="0 0 18 119" fill="none" xmlns="http://www.w3.org/2000/svg">
<path d="M16.9143 113.734H3.19079V119.002H0.636005V105.742H3.19079V111.01H16.9143V113.734Z" fill="#131218"/>
<path d="M17.2534 100.873C17.2534 102.109 16.9859 103.194 16.4508 104.128C15.9157 105.063 15.1734 105.794 14.2238 106.321C13.2743 106.841 12.1815 107.101 10.9456 107.101C9.61166 107.101 8.45485 106.845 7.47514 106.333C6.48789 105.82 5.72296 105.108 5.18035 104.196C4.63774 103.284 4.36644 102.229 4.36644 101.031C4.36644 99.7649 4.66412 98.691 5.25948 97.8093C5.84731 96.92 6.68006 96.2606 7.75774 95.831C8.83543 95.4015 10.1053 95.2394 11.5673 95.3449V98.0467H10.5725C9.24615 98.0542 8.27774 98.2878 7.66731 98.7476C7.05687 99.2073 6.75166 99.9307 6.75166 100.918C6.75166 102.033 7.09832 102.862 7.79166 103.405C8.47746 103.948 9.48354 104.219 10.8099 104.219C12.0459 104.219 13.003 103.948 13.6812 103.405C14.3595 102.862 14.6986 102.071 14.6986 101.031C14.6986 100.36 14.5517 99.7838 14.2577 99.3015C13.9563 98.8116 13.523 98.4348 12.9577 98.171L13.7717 95.4806C14.8719 95.9478 15.7273 96.6713 16.3377 97.651C16.9482 98.6232 17.2534 99.6971 17.2534 100.873ZM11.5673 105.078H9.50992V96.6788H11.5673V105.078Z" fill="#131218"/>
<path d="M17.2534 88.787C17.2534 90.2943 16.9143 91.5189 16.236 92.4609C15.5577 93.4029 14.6044 93.9757 13.376 94.1792L12.9464 91.3983C13.5493 91.2551 14.0241 90.9386 14.3708 90.4487C14.7175 89.9589 14.8908 89.3409 14.8908 88.5948C14.8908 87.9392 14.7627 87.4342 14.5064 87.08C14.2427 86.7183 13.8847 86.5374 13.4325 86.5374C13.1537 86.5374 12.9314 86.6053 12.7656 86.7409C12.5922 86.869 12.4264 87.1554 12.2682 87.6C12.1099 88.0447 11.9102 88.7267 11.669 89.6461C11.3977 90.6711 11.1076 91.485 10.7986 92.0879C10.4821 92.6908 10.109 93.1241 9.67948 93.3879C9.24992 93.6516 8.72992 93.7835 8.11948 93.7835C7.35832 93.7835 6.69514 93.5838 6.12992 93.1844C5.5647 92.785 5.13137 92.2273 4.82992 91.5114C4.52093 90.7954 4.36644 89.9513 4.36644 88.9792C4.36644 88.0296 4.5134 87.1893 4.80731 86.4583C5.10122 85.7198 5.51948 85.1244 6.06209 84.6722C6.6047 84.22 7.24151 83.9412 7.97253 83.8357L8.46992 86.6166C7.94992 86.6844 7.53919 86.9218 7.23774 87.3287C6.9363 87.7282 6.76673 88.2632 6.72905 88.934C6.69137 89.5745 6.78934 90.0908 7.02296 90.4827C7.24905 90.8745 7.56934 91.0705 7.98383 91.0705C8.21745 91.0705 8.41716 90.9913 8.58296 90.8331C8.74876 90.6748 8.91456 90.3583 9.08035 89.8835C9.24615 89.4012 9.44963 88.6853 9.69079 87.7357C9.93948 86.7635 10.2259 85.9873 10.5499 85.407C10.8664 84.8192 11.247 84.3971 11.6917 84.1409C12.1363 83.8771 12.6751 83.7453 13.3082 83.7453C14.5366 83.7453 15.5012 84.1937 16.2021 85.0905C16.903 85.9798 17.2534 87.2119 17.2534 88.787Z" fill="#131218"/>
<path d="M16.9143 74.7919C17.065 75.5982 17.1291 76.3895 17.1064 77.1658C17.0914 77.9345 16.9519 78.624 16.6882 79.2345C16.4169 79.8449 15.9911 80.3084 15.4108 80.6249C14.8833 80.9037 14.3444 81.0507 13.7943 81.0658C13.2441 81.0809 12.6224 81.0884 11.929 81.0884H1.31427V78.3753H11.7708C12.2606 78.3753 12.6902 78.3716 13.0595 78.364C13.4288 78.349 13.7302 78.2698 13.9638 78.1266C14.416 77.8553 14.6685 77.422 14.7212 76.8267C14.774 76.2313 14.7438 75.553 14.6308 74.7919H16.9143ZM6.84209 83.304H4.70557V74.7919H6.84209V83.304Z" fill="#131218"/>
<path d="M2.85166 72.6188H0.353397V69.8944H2.85166V72.6188ZM16.9143 72.6188H4.70557V69.8944H16.9143V72.6188Z" fill="#131218"/>
<path d="M16.9143 52.5248H9.49861C8.66209 52.5248 8.01021 52.732 7.54296 53.1465C7.06818 53.561 6.83079 54.1225 6.83079 54.8309C6.83079 55.268 6.93253 55.6599 7.136 56.0065C7.33195 56.3532 7.62586 56.6283 8.01774 56.8317C8.40209 57.0352 8.8618 57.1369 9.39688 57.1369L8.6847 58.3465C7.84064 58.354 7.09832 58.1656 6.45774 57.7813C5.80963 57.3894 5.3047 56.8619 4.94296 56.1987C4.58122 55.5355 4.40035 54.797 4.40035 53.983C4.40035 52.6341 4.80731 51.6016 5.62122 50.8856C6.4276 50.1622 7.49021 49.8004 8.80905 49.8004H16.9143V52.5248ZM16.9143 67.2091H4.70557V64.8013H8.49253V64.4622H16.9143V67.2091ZM16.9143 59.85H9.53253C8.68093 59.85 8.01774 60.0572 7.54296 60.4717C7.06818 60.8862 6.83079 61.4514 6.83079 62.1674C6.83079 62.8607 7.06818 63.4184 7.54296 63.8404C8.01774 64.2549 8.63572 64.4622 9.39688 64.4622L8.58296 65.683C7.79166 65.683 7.07948 65.4871 6.44644 65.0952C5.8134 64.7033 5.31601 64.1758 4.95427 63.5126C4.58499 62.8419 4.40035 62.092 4.40035 61.263C4.40035 60.3512 4.5963 59.59 4.98818 58.9796C5.37253 58.3616 5.90006 57.9019 6.57079 57.6004C7.23398 57.2914 7.98383 57.1369 8.82035 57.1369H16.9143V59.85Z" fill="#131218"/>
<path d="M17.2534 42.3367C17.2534 43.5576 16.9783 44.624 16.4282 45.5359C15.878 46.4477 15.1206 47.1562 14.156 47.6611C13.1838 48.1585 12.0685 48.4072 10.8099 48.4072C9.52876 48.4072 8.40586 48.1509 7.44122 47.6385C6.47659 47.126 5.72296 46.4138 5.18035 45.5019C4.63774 44.5901 4.36644 43.535 4.36644 42.3367C4.36644 41.1083 4.64151 40.0382 5.19166 39.1263C5.7418 38.2144 6.50296 37.506 7.47514 37.0011C8.43977 36.4962 9.55137 36.2437 10.8099 36.2437C12.076 36.2437 13.1951 36.4999 14.1673 37.0124C15.1319 37.5173 15.8893 38.2257 16.4395 39.1376C16.9821 40.0495 17.2534 41.1159 17.2534 42.3367ZM14.6986 42.3367C14.6986 41.2515 14.3369 40.4451 13.6134 39.9176C12.8899 39.3901 11.9554 39.1263 10.8099 39.1263C9.62673 39.1263 8.6847 39.3938 7.98383 39.9289C7.27543 40.464 6.92122 41.2666 6.92122 42.3367C6.92122 43.0677 7.08702 43.6706 7.41861 44.1454C7.74267 44.6127 8.19861 44.9593 8.78644 45.1854C9.36673 45.4115 10.0412 45.5246 10.8099 45.5246C11.9931 45.5246 12.9389 45.257 13.6473 44.722C14.3482 44.1793 14.6986 43.3843 14.6986 42.3367Z" fill="#131218"/>
<path d="M16.9143 25.9869H11.036C10.6517 25.9869 10.2259 26.0133 9.75861 26.0661C9.29137 26.1188 8.84296 26.2432 8.4134 26.4391C7.97629 26.6275 7.61832 26.9139 7.33948 27.2982C7.06064 27.6751 6.92122 28.1875 6.92122 28.8356C6.92122 29.1823 6.97774 29.5252 7.09079 29.8643C7.20383 30.2035 7.39977 30.5124 7.67861 30.7913C7.94992 31.0626 8.32673 31.2811 8.80905 31.4469C9.28383 31.6127 9.89427 31.6956 10.6404 31.6956L9.95079 33.3121C8.91079 33.3121 7.96876 33.1124 7.1247 32.713C6.28064 32.3061 5.60992 31.7107 5.11253 30.9269C4.6076 30.1432 4.35514 29.1785 4.35514 28.033C4.35514 27.1287 4.50586 26.3826 4.80731 25.7948C5.10876 25.2069 5.49311 24.7397 5.96035 24.393C6.4276 24.0464 6.92499 23.7901 7.45253 23.6243C7.98006 23.4585 8.48122 23.353 8.95601 23.3078C9.42325 23.255 9.80383 23.2287 10.0977 23.2287H16.9143V25.9869ZM16.9143 34.4539H4.70557V32.0235H8.49253V31.6956H16.9143V34.4539Z" fill="#131218"/>
<path d="M2.85166 20.7309H0.353397V18.0066H2.85166V20.7309ZM16.9143 20.7309H4.70557V18.0066H16.9143V20.7309Z" fill="#131218"/>
<path d="M17.2534 11.8848C17.2534 12.7665 17.0876 13.5126 16.756 14.123C16.4169 14.7335 15.9685 15.1969 15.4108 15.5135C14.8531 15.8224 14.2389 15.9769 13.5682 15.9769C12.9804 15.9769 12.4528 15.879 11.9856 15.683C11.5108 15.4871 11.1038 15.1856 10.7647 14.7787C10.418 14.3717 10.1354 13.8442 9.91687 13.1961C9.75861 12.7062 9.61543 12.1335 9.48731 11.4778C9.35919 10.8146 9.24238 10.0987 9.13688 9.32997C9.02383 8.55374 8.90325 7.7436 8.77514 6.89954L9.32905 7.87171C8.48499 7.86418 7.86325 8.05258 7.46383 8.43693C7.06441 8.82128 6.8647 9.46939 6.8647 10.3813C6.8647 10.9314 6.99282 11.4627 7.24905 11.9752C7.50528 12.4877 7.94615 12.8456 8.57166 13.0491L7.79166 15.5361C6.75919 15.2346 5.93021 14.6619 5.3047 13.8178C4.67919 12.9662 4.36644 11.8207 4.36644 10.3813C4.36644 9.29606 4.54354 8.34273 4.89774 7.52128C5.25195 6.69229 5.83224 6.07809 6.63861 5.67867C7.06818 5.46012 7.50905 5.32823 7.96122 5.28302C8.40586 5.2378 8.89195 5.21519 9.41948 5.21519H16.9143V7.60041H14.269L14.6986 7.20476C15.5804 7.7549 16.2285 8.39925 16.643 9.1378C17.0499 9.86881 17.2534 10.7845 17.2534 11.8848ZM15.083 11.3421C15.083 10.7242 14.9737 10.1966 14.7551 9.75954C14.5366 9.32244 14.269 8.97577 13.9525 8.71954C13.636 8.45577 13.3383 8.27867 13.0595 8.18823C12.7128 8.04505 12.3172 7.96592 11.8725 7.95084C11.4204 7.92823 11.0548 7.91693 10.776 7.91693L11.0247 7.08041C11.1528 7.90186 11.2659 8.6065 11.3638 9.19432C11.4618 9.78215 11.556 10.2871 11.6464 10.7091C11.7293 11.1311 11.8235 11.5042 11.929 11.8282C12.0421 12.1448 12.174 12.4123 12.3247 12.6308C12.4754 12.8494 12.6488 13.019 12.8447 13.1395C13.0406 13.2526 13.2705 13.3091 13.5343 13.3091C13.8357 13.3091 14.1033 13.2337 14.3369 13.083C14.563 12.9323 14.7438 12.7137 14.8795 12.4274C15.0151 12.1335 15.083 11.7717 15.083 11.3421Z" fill="#131218"/>
<path d="M16.9143 2.72435H0.296875V0H16.9143V2.72435Z" fill="#131218"/>
</svg>
