<svg xmlns="http://www.w3.org/2000/svg" xmlns:xlink="http://www.w3.org/1999/xlink" width="800" zoomAndPan="magnify" viewBox="0 0 600 599.999999" height="800" preserveAspectRatio="xMidYMid meet" version="1.0"><defs><g/><clipPath id="8535e5768e"><path d="M 47.210938 60 L 552.710938 60 L 552.710938 565.5 L 47.210938 565.5 Z M 47.210938 60 " clip-rule="nonzero"/></clipPath><clipPath id="b75e29aa7b"><path d="M 299.996094 60 C 160.386719 60 47.210938 173.175781 47.210938 312.785156 C 47.210938 452.394531 160.386719 565.570312 299.996094 565.570312 C 439.605469 565.570312 552.78125 452.394531 552.78125 312.785156 C 552.78125 173.175781 439.605469 60 299.996094 60 Z M 299.996094 60 " clip-rule="nonzero"/></clipPath></defs><g clip-path="url(#8535e5768e)"><g clip-path="url(#b75e29aa7b)"><path stroke-linecap="butt" transform="matrix(0.75, 0, 0, 0.75, 47.211982, 60.000017)" fill="none" stroke-linejoin="miter" d="M 337.045496 -0.0000232533 C 150.899655 -0.0000232533 -0.00139305 150.901025 -0.00139305 337.046866 C -0.00139305 523.192707 150.899655 674.093756 337.045496 674.093756 C 523.191338 674.093756 674.092386 523.192707 674.092386 337.046866 C 674.092386 150.901025 523.191338 -0.0000232533 337.045496 -0.0000232533 Z M 337.045496 -0.0000232533 " stroke="#ff6105" stroke-width="56" stroke-opacity="1" stroke-miterlimit="4"/></g></g><g fill="#ff6105" fill-opacity="1"><g transform="translate(105.345999, 296.215671)"><g><path d="M 17.1875 -9.546875 L 37.5625 -9.546875 L 37.5625 0 L 1.765625 0 L 1.765625 -1.5625 L 21.515625 -37.828125 L 2.90625 -37.828125 L 2.90625 -47.375 L 36.8125 -47.375 L 36.8125 -45.46875 Z M 17.1875 -9.546875 "/></g></g></g><g fill="#ff6105" fill-opacity="1"><g transform="translate(144.795866, 296.215671)"><g><path d="M 15.703125 -9.546875 L 34.578125 -9.546875 L 34.578125 0 L 5.40625 0 L 5.40625 -47.375 L 33.828125 -47.375 L 33.828125 -37.890625 L 15.703125 -37.890625 L 15.703125 -28.5625 L 32.078125 -28.5625 L 32.078125 -19.28125 L 15.703125 -19.28125 Z M 15.703125 -9.546875 "/></g></g></g><g fill="#ff6105" fill-opacity="1"><g transform="translate(182.621716, 296.215671)"><g><path d="M 31.46875 0 L 22.265625 -16.171875 L 15.703125 -16.171875 L 15.703125 0 L 5.40625 0 L 5.40625 -47.375 L 24.5625 -47.375 C 27.71875 -47.375 30.535156 -46.695312 33.015625 -45.34375 C 35.503906 -43.988281 37.46875 -42.132812 38.90625 -39.78125 C 40.351562 -37.4375 41.078125 -34.734375 41.078125 -31.671875 C 41.078125 -28.597656 40.296875 -25.851562 38.734375 -23.4375 C 37.179688 -21.03125 35.097656 -19.195312 32.484375 -17.9375 L 42.96875 0 Z M 15.703125 -37.890625 L 15.703125 -25.640625 L 23.890625 -25.640625 C 26.003906 -25.640625 27.671875 -26.210938 28.890625 -27.359375 C 30.109375 -28.515625 30.71875 -29.972656 30.71875 -31.734375 C 30.71875 -33.535156 30.109375 -35.007812 28.890625 -36.15625 C 27.671875 -37.3125 26.003906 -37.890625 23.890625 -37.890625 Z M 15.703125 -37.890625 "/></g></g></g><g fill="#ff6105" fill-opacity="1"><g transform="translate(226.943563, 296.215671)"><g><path d="M 27.875 1.015625 C 24.269531 1.015625 20.929688 0.394531 17.859375 -0.84375 C 14.796875 -2.082031 12.125 -3.816406 9.84375 -6.046875 C 7.5625 -8.285156 5.789062 -10.90625 4.53125 -13.90625 C 3.269531 -16.90625 2.640625 -20.164062 2.640625 -23.6875 C 2.640625 -27.207031 3.269531 -30.46875 4.53125 -33.46875 C 5.789062 -36.46875 7.5625 -39.082031 9.84375 -41.3125 C 12.125 -43.539062 14.796875 -45.273438 17.859375 -46.515625 C 20.929688 -47.765625 24.269531 -48.390625 27.875 -48.390625 C 31.488281 -48.390625 34.828125 -47.765625 37.890625 -46.515625 C 40.960938 -45.273438 43.625 -43.539062 45.875 -41.3125 C 48.132812 -39.082031 49.894531 -36.46875 51.15625 -33.46875 C 52.414062 -30.46875 53.046875 -27.207031 53.046875 -23.6875 C 53.046875 -20.164062 52.414062 -16.90625 51.15625 -13.90625 C 49.894531 -10.90625 48.132812 -8.285156 45.875 -6.046875 C 43.625 -3.816406 40.960938 -2.082031 37.890625 -0.84375 C 34.828125 0.394531 31.488281 1.015625 27.875 1.015625 Z M 27.875 -8.65625 C 30.71875 -8.65625 33.253906 -9.3125 35.484375 -10.625 C 37.722656 -11.9375 39.484375 -13.71875 40.765625 -15.96875 C 42.054688 -18.226562 42.703125 -20.800781 42.703125 -23.6875 C 42.703125 -26.53125 42.054688 -29.085938 40.765625 -31.359375 C 39.484375 -33.640625 37.722656 -35.429688 35.484375 -36.734375 C 33.253906 -38.046875 30.71875 -38.703125 27.875 -38.703125 C 25.082031 -38.703125 22.554688 -38.046875 20.296875 -36.734375 C 18.046875 -35.429688 16.265625 -33.640625 14.953125 -31.359375 C 13.648438 -29.085938 13 -26.53125 13 -23.6875 C 13 -20.84375 13.648438 -18.28125 14.953125 -16 C 16.265625 -13.726562 18.046875 -11.9375 20.296875 -10.625 C 22.554688 -9.3125 25.082031 -8.65625 27.875 -8.65625 Z M 27.875 -8.65625 "/></g></g></g><g fill="#ff6105" fill-opacity="1"><g transform="translate(282.633508, 296.215671)"><g/></g></g><g fill="#ff6105" fill-opacity="1"><g transform="translate(298.805906, 296.215671)"><g><path d="M 27.140625 1.015625 C 23.660156 1.015625 20.429688 0.394531 17.453125 -0.84375 C 14.484375 -2.082031 11.890625 -3.816406 9.671875 -6.046875 C 7.460938 -8.285156 5.75 -10.90625 4.53125 -13.90625 C 3.3125 -16.90625 2.703125 -20.144531 2.703125 -23.625 C 2.703125 -27.132812 3.3125 -30.398438 4.53125 -33.421875 C 5.75 -36.453125 7.460938 -39.082031 9.671875 -41.3125 C 11.890625 -43.539062 14.484375 -45.273438 17.453125 -46.515625 C 20.429688 -47.765625 23.660156 -48.390625 27.140625 -48.390625 C 30.972656 -48.390625 34.488281 -47.597656 37.6875 -46.015625 C 40.894531 -44.429688 43.582031 -42.21875 45.75 -39.375 C 47.914062 -36.539062 49.359375 -33.25 50.078125 -29.5 L 39.796875 -29.5 C 38.847656 -32.300781 37.242188 -34.523438 34.984375 -36.171875 C 32.734375 -37.816406 30.117188 -38.640625 27.140625 -38.640625 C 24.472656 -38.640625 22.078125 -37.972656 19.953125 -36.640625 C 17.835938 -35.304688 16.160156 -33.507812 14.921875 -31.25 C 13.679688 -29 13.0625 -26.457031 13.0625 -23.625 C 13.0625 -20.78125 13.679688 -18.238281 14.921875 -16 C 16.160156 -13.769531 17.835938 -12 19.953125 -10.6875 C 22.078125 -9.382812 24.472656 -8.734375 27.140625 -8.734375 C 30.253906 -8.734375 32.9375 -9.613281 35.1875 -11.375 C 37.445312 -13.132812 39.003906 -15.523438 39.859375 -18.546875 L 50.21875 -18.546875 C 49.488281 -14.617188 48.050781 -11.1875 45.90625 -8.25 C 43.769531 -5.320312 41.085938 -3.046875 37.859375 -1.421875 C 34.640625 0.203125 31.066406 1.015625 27.140625 1.015625 Z M 27.140625 1.015625 "/></g></g></g><g fill="#ff6105" fill-opacity="1"><g transform="translate(350.977152, 296.215671)"><g><path d="M 27.875 1.015625 C 24.269531 1.015625 20.929688 0.394531 17.859375 -0.84375 C 14.796875 -2.082031 12.125 -3.816406 9.84375 -6.046875 C 7.5625 -8.285156 5.789062 -10.90625 4.53125 -13.90625 C 3.269531 -16.90625 2.640625 -20.164062 2.640625 -23.6875 C 2.640625 -27.207031 3.269531 -30.46875 4.53125 -33.46875 C 5.789062 -36.46875 7.5625 -39.082031 9.84375 -41.3125 C 12.125 -43.539062 14.796875 -45.273438 17.859375 -46.515625 C 20.929688 -47.765625 24.269531 -48.390625 27.875 -48.390625 C 31.488281 -48.390625 34.828125 -47.765625 37.890625 -46.515625 C 40.960938 -45.273438 43.625 -43.539062 45.875 -41.3125 C 48.132812 -39.082031 49.894531 -36.46875 51.15625 -33.46875 C 52.414062 -30.46875 53.046875 -27.207031 53.046875 -23.6875 C 53.046875 -20.164062 52.414062 -16.90625 51.15625 -13.90625 C 49.894531 -10.90625 48.132812 -8.285156 45.875 -6.046875 C 43.625 -3.816406 40.960938 -2.082031 37.890625 -0.84375 C 34.828125 0.394531 31.488281 1.015625 27.875 1.015625 Z M 27.875 -8.65625 C 30.71875 -8.65625 33.253906 -9.3125 35.484375 -10.625 C 37.722656 -11.9375 39.484375 -13.71875 40.765625 -15.96875 C 42.054688 -18.226562 42.703125 -20.800781 42.703125 -23.6875 C 42.703125 -26.53125 42.054688 -29.085938 40.765625 -31.359375 C 39.484375 -33.640625 37.722656 -35.429688 35.484375 -36.734375 C 33.253906 -38.046875 30.71875 -38.703125 27.875 -38.703125 C 25.082031 -38.703125 22.554688 -38.046875 20.296875 -36.734375 C 18.046875 -35.429688 16.265625 -33.640625 14.953125 -31.359375 C 13.648438 -29.085938 13 -26.53125 13 -23.6875 C 13 -20.84375 13.648438 -18.28125 14.953125 -16 C 16.265625 -13.726562 18.046875 -11.9375 20.296875 -10.625 C 22.554688 -9.3125 25.082031 -8.65625 27.875 -8.65625 Z M 27.875 -8.65625 "/></g></g></g><g fill="#ff6105" fill-opacity="1"><g transform="translate(406.667107, 296.215671)"><g><path d="M 23.34375 -47.375 C 26.820312 -47.375 30.023438 -46.785156 32.953125 -45.609375 C 35.890625 -44.429688 38.425781 -42.78125 40.5625 -40.65625 C 42.707031 -38.539062 44.378906 -36.050781 45.578125 -33.1875 C 46.773438 -30.320312 47.375 -27.175781 47.375 -23.75 C 47.375 -20.320312 46.773438 -17.164062 45.578125 -14.28125 C 44.378906 -11.394531 42.707031 -8.878906 40.5625 -6.734375 C 38.425781 -4.585938 35.890625 -2.925781 32.953125 -1.75 C 30.023438 -0.582031 26.820312 0 23.34375 0 L 5.40625 0 L 5.40625 -47.375 Z M 23.078125 -9.546875 C 25.785156 -9.546875 28.175781 -10.15625 30.25 -11.375 C 32.320312 -12.59375 33.941406 -14.269531 35.109375 -16.40625 C 36.285156 -18.550781 36.875 -21 36.875 -23.75 C 36.875 -26.5 36.285156 -28.929688 35.109375 -31.046875 C 33.941406 -33.171875 32.320312 -34.832031 30.25 -36.03125 C 28.175781 -37.226562 25.785156 -37.828125 23.078125 -37.828125 L 15.703125 -37.828125 L 15.703125 -9.546875 Z M 23.078125 -9.546875 "/></g></g></g><g fill="#ff6105" fill-opacity="1"><g transform="translate(456.808361, 296.215671)"><g><path d="M 15.703125 -9.546875 L 34.578125 -9.546875 L 34.578125 0 L 5.40625 0 L 5.40625 -47.375 L 33.828125 -47.375 L 33.828125 -37.890625 L 15.703125 -37.890625 L 15.703125 -28.5625 L 32.078125 -28.5625 L 32.078125 -19.28125 L 15.703125 -19.28125 Z M 15.703125 -9.546875 "/></g></g></g><g fill="#ff6105" fill-opacity="1"><g transform="translate(132.752513, 365.819517)"><g><path d="M 27.140625 1.015625 C 23.660156 1.015625 20.429688 0.394531 17.453125 -0.84375 C 14.484375 -2.082031 11.890625 -3.816406 9.671875 -6.046875 C 7.460938 -8.285156 5.75 -10.90625 4.53125 -13.90625 C 3.3125 -16.90625 2.703125 -20.144531 2.703125 -23.625 C 2.703125 -27.132812 3.3125 -30.398438 4.53125 -33.421875 C 5.75 -36.453125 7.460938 -39.082031 9.671875 -41.3125 C 11.890625 -43.539062 14.484375 -45.273438 17.453125 -46.515625 C 20.429688 -47.765625 23.660156 -48.390625 27.140625 -48.390625 C 30.972656 -48.390625 34.488281 -47.597656 37.6875 -46.015625 C 40.894531 -44.429688 43.582031 -42.21875 45.75 -39.375 C 47.914062 -36.539062 49.359375 -33.25 50.078125 -29.5 L 39.796875 -29.5 C 38.847656 -32.300781 37.242188 -34.523438 34.984375 -36.171875 C 32.734375 -37.816406 30.117188 -38.640625 27.140625 -38.640625 C 24.472656 -38.640625 22.078125 -37.972656 19.953125 -36.640625 C 17.835938 -35.304688 16.160156 -33.507812 14.921875 -31.25 C 13.679688 -29 13.0625 -26.457031 13.0625 -23.625 C 13.0625 -20.78125 13.679688 -18.238281 14.921875 -16 C 16.160156 -13.769531 17.835938 -12 19.953125 -10.6875 C 22.078125 -9.382812 24.472656 -8.734375 27.140625 -8.734375 C 30.253906 -8.734375 32.9375 -9.613281 35.1875 -11.375 C 37.445312 -13.132812 39.003906 -15.523438 39.859375 -18.546875 L 50.21875 -18.546875 C 49.488281 -14.617188 48.050781 -11.1875 45.90625 -8.25 C 43.769531 -5.320312 41.085938 -3.046875 37.859375 -1.421875 C 34.640625 0.203125 31.066406 1.015625 27.140625 1.015625 Z M 27.140625 1.015625 "/></g></g></g><g fill="#ff6105" fill-opacity="1"><g transform="translate(184.923769, 365.819517)"><g><path d="M 33.5 -47.375 L 43.71875 -47.375 L 43.71875 0 L 33.5 0 L 33.5 -19.5625 L 15.703125 -19.5625 L 15.703125 0 L 5.40625 0 L 5.40625 -47.375 L 15.703125 -47.375 L 15.703125 -29.09375 L 33.5 -29.09375 Z M 33.5 -47.375 "/></g></g></g><g fill="#ff6105" fill-opacity="1"><g transform="translate(234.117676, 365.819517)"><g><path d="M 36.875 0 L 33.5625 -9 L 14.6875 -9 L 11.4375 0 L 0.609375 0 L 19.15625 -47.375 L 28.828125 -47.375 L 47.984375 0 Z M 24.09375 -34.84375 L 17.9375 -17.9375 L 30.3125 -17.9375 Z M 24.09375 -34.84375 "/></g></g></g><g fill="#ff6105" fill-opacity="1"><g transform="translate(282.702583, 365.819517)"><g><path d="M 35.453125 -47.375 L 45.46875 -47.375 L 45.46875 0 L 36.953125 0 L 15.5 -29.578125 L 15.5 0 L 5.40625 0 L 5.40625 -47.375 L 14.6875 -47.375 L 35.453125 -18.46875 Z M 35.453125 -47.375 "/></g></g></g><g fill="#ff6105" fill-opacity="1"><g transform="translate(333.588166, 365.819517)"><g><path d="M 26.1875 -24.765625 L 51.4375 -24.765625 C 51.382812 -21.023438 50.769531 -17.585938 49.59375 -14.453125 C 48.425781 -11.316406 46.769531 -8.597656 44.625 -6.296875 C 42.488281 -3.992188 39.941406 -2.195312 36.984375 -0.90625 C 34.023438 0.375 30.765625 1.015625 27.203125 1.015625 C 23.734375 1.015625 20.507812 0.40625 17.53125 -0.8125 C 14.550781 -2.03125 11.941406 -3.742188 9.703125 -5.953125 C 7.472656 -8.160156 5.75 -10.773438 4.53125 -13.796875 C 3.3125 -16.828125 2.703125 -20.101562 2.703125 -23.625 C 2.703125 -27.1875 3.300781 -30.46875 4.5 -33.46875 C 5.695312 -36.46875 7.390625 -39.082031 9.578125 -41.3125 C 11.765625 -43.539062 14.347656 -45.273438 17.328125 -46.515625 C 20.304688 -47.765625 23.53125 -48.390625 27 -48.390625 C 30.925781 -48.390625 34.554688 -47.617188 37.890625 -46.078125 C 41.234375 -44.546875 44.03125 -42.425781 46.28125 -39.71875 C 48.539062 -37.007812 50.03125 -33.875 50.75 -30.3125 L 40.203125 -30.3125 C 39.203125 -32.882812 37.53125 -34.914062 35.1875 -36.40625 C 32.84375 -37.894531 30.179688 -38.640625 27.203125 -38.640625 C 24.410156 -38.640625 21.953125 -37.992188 19.828125 -36.703125 C 17.703125 -35.421875 16.039062 -33.660156 14.84375 -31.421875 C 13.65625 -29.191406 13.0625 -26.59375 13.0625 -23.625 C 13.0625 -20.6875 13.644531 -18.097656 14.8125 -15.859375 C 15.988281 -13.628906 17.632812 -11.882812 19.75 -10.625 C 21.875 -9.363281 24.359375 -8.734375 27.203125 -8.734375 C 30.273438 -8.734375 33.023438 -9.476562 35.453125 -10.96875 C 37.890625 -12.457031 39.539062 -14.414062 40.40625 -16.84375 L 26.1875 -16.84375 Z M 26.1875 -24.765625 "/></g></g></g><g fill="#ff6105" fill-opacity="1"><g transform="translate(387.518766, 365.819517)"><g><path d="M 15.703125 -9.546875 L 34.578125 -9.546875 L 34.578125 0 L 5.40625 0 L 5.40625 -47.375 L 33.828125 -47.375 L 33.828125 -37.890625 L 15.703125 -37.890625 L 15.703125 -28.5625 L 32.078125 -28.5625 L 32.078125 -19.28125 L 15.703125 -19.28125 Z M 15.703125 -9.546875 "/></g></g></g><g fill="#ff6105" fill-opacity="1"><g transform="translate(425.344616, 365.819517)"><g><path d="M 21.109375 0.953125 C 17.503906 0.953125 14.320312 0.296875 11.5625 -1.015625 C 8.8125 -2.328125 6.660156 -4.195312 5.109375 -6.625 C 3.554688 -9.0625 2.78125 -11.972656 2.78125 -15.359375 L 13.125 -15.359375 C 13.125 -13.054688 13.925781 -11.351562 15.53125 -10.25 C 17.132812 -9.144531 18.972656 -8.59375 21.046875 -8.59375 C 22.359375 -8.59375 23.585938 -8.804688 24.734375 -9.234375 C 25.878906 -9.660156 26.820312 -10.289062 27.5625 -11.125 C 28.3125 -11.96875 28.6875 -12.972656 28.6875 -14.140625 C 28.6875 -15.359375 28.257812 -16.316406 27.40625 -17.015625 C 26.550781 -17.710938 25.398438 -18.285156 23.953125 -18.734375 C 22.515625 -19.191406 20.9375 -19.625 19.21875 -20.03125 C 17.457031 -20.4375 15.648438 -20.929688 13.796875 -21.515625 C 11.953125 -22.109375 10.238281 -22.890625 8.65625 -23.859375 C 7.082031 -24.828125 5.820312 -26.132812 4.875 -27.78125 C 3.925781 -29.425781 3.453125 -31.507812 3.453125 -34.03125 C 3.453125 -38.59375 4.992188 -42.101562 8.078125 -44.5625 C 11.171875 -47.019531 15.359375 -48.25 20.640625 -48.25 C 26.054688 -48.25 30.25 -46.882812 33.21875 -44.15625 C 36.195312 -41.425781 37.6875 -37.71875 37.6875 -33.03125 L 27.546875 -33.03125 C 27.546875 -35.050781 26.820312 -36.546875 25.375 -37.515625 C 23.9375 -38.492188 22.269531 -38.984375 20.375 -38.984375 C 18.695312 -38.984375 17.160156 -38.617188 15.765625 -37.890625 C 14.367188 -37.171875 13.671875 -36.046875 13.671875 -34.515625 C 13.671875 -33.390625 14.085938 -32.5 14.921875 -31.84375 C 15.753906 -31.1875 16.859375 -30.644531 18.234375 -30.21875 C 19.609375 -29.789062 21.132812 -29.375 22.8125 -28.96875 C 24.613281 -28.507812 26.460938 -27.972656 28.359375 -27.359375 C 30.253906 -26.753906 32.007812 -25.929688 33.625 -24.890625 C 35.25 -23.859375 36.566406 -22.484375 37.578125 -20.765625 C 38.597656 -19.054688 39.109375 -16.894531 39.109375 -14.28125 C 39.109375 -10.851562 38.285156 -8.007812 36.640625 -5.75 C 34.992188 -3.5 32.816406 -1.816406 30.109375 -0.703125 C 27.398438 0.398438 24.398438 0.953125 21.109375 0.953125 Z M 21.109375 0.953125 "/></g></g></g></svg>