<?xml version="1.0" encoding="UTF-8"?>
<svg id="Layer_2" data-name="Layer 2" xmlns="http://www.w3.org/2000/svg" viewBox="0 0 149.4 160">
  <defs>
    <style>
      .cls-1 {
        stroke: #f15f0b;
        stroke-miterlimit: 10;
        stroke-width: 3px;
      }

      .cls-1, .cls-2 {
        fill: #f15f0b;
      }
    </style>
  </defs>
  <g id="Layer_1-2" data-name="Layer 1">
    <g>
      <path class="cls-1" d="M142.2,73.8l-17.2-6.7c-1.9-.9-4,.2-4.9,2.1-.9,1.9.2,4,2.1,4.9l17.2,6.7h0s.9.1.9.1c1.9.5,3.6,0,4-2.5v.3c0-.3,1.5-3.1-2.1-4.9ZM147.8,46.8c-.4-2.1-2.2-3.6-4.3-3.2l-18.3,2.5h0c-2.1.4-3.6,1.9-3.1,4,0,2,1.6,3.2,3.3,3.4h1c0,.1,18.3-2.4,18.3-2.4,2-.4,3.6-2.2,3.2-4.3ZM135.3,17.6c-1.1-1.8-3.4-2.1-5.3-.6l-14.4,11.3c-1.8,1.1-2.1,3.4-.6,5.3.6.7,1.5,1.2,2.5,1.3s2,0,2.8-.7l14.4-11.3c1.8-1.1,1.8-3.5.6-5.3Z"/>
      <path class="cls-1" d="M101,41.2h0c-.3,1.8-1.5,2.8-2.7,3.4s-1.2.4-1.4.4h-.7c0,0-.5,0-.5,0-.8,0-1.6-.3-2.4-.6s-1.1-.7-1.8-1.7h0c-.3-.6-.6-1.3-.7-2.4-.7-7.3-3.5-12.8-10.1-19.3-6.6-6.6-15-10.1-24.1-10.1s-17.5,3.4-24.1,10.1c-6.4,6.4-10.1,15-10.1,24.1v14.7c0,2.7-2.2,4.9-4.9,4.9h0c-2.7,0-4.9-2.2-4.9-4.9v-14.7c0-11.8,4.7-22.6,12.8-31h.7C34.7,5.9,45.7,1.5,57.3,1.5s22.7,4.6,31,12.8,12.8,13.5,12.8,27Z"/>
      <path class="cls-2" d="M114.8,111.6v-26.3c0-5.2-4.2-9.6-9.6-9.6H9.6c-5.2,0-9.6,4.2-9.6,9.6v64.9c0,5.2,4.2,9.6,9.6,9.6l-.2.2h79.4c5,0,11.3,0,16.5,0,5.3,0,9.6-4.3,9.6-9.7,0-15.2,0-31.6,0-38.7ZM62.6,118.7l6.1,27.6h-22.5l6.1-27.6c0-2.1,0-4.6-2-5.6-2.5-2.1-4.6-5.6-4.6-9.2,0-6.7,5.2-11.9,12-11.8,6.5.1,11.6,5.7,11.5,12.2,0,6.2-1.6,6.8-4.6,8.8-1.5,1.5-2.6,3.6-2.1,5.6Z"/>
    </g>
  </g>
</svg>