<svg version="1.1" id="Layer_1" xmlns="http://www.w3.org/2000/svg" xmlns:xlink="http://www.w3.org/1999/xlink" x="0px" y="0px" viewBox="0 0 512 512" enable-background="new 0 0 512 512" xml:space="preserve">
  <linearGradient id="SVGID_1_" gradientUnits="userSpaceOnUse" x1="252.7102" y1="478.1775" x2="252.7102" y2="127.8235" class="gradient-element">
    <stop offset="0" class="primary-color-gradient" style="stop-color: #F2600c"/>
    <stop offset="1" class="secondary-color-gradient" style="stop-color: #DE4313"/>
  </linearGradient>
  <path fill="url(#SVGID_1_)" d="M250.8,181.1v305.5H173v-33.3h-44.4v33.3H50.9V469c0-26.7,21.7-48.4,48.4-48.4h0
	c28.5,0,51.6-23.1,51.6-51.6v-120c0-40.6,32.9-73.5,73.5-73.5h20.9C248.3,175.6,250.8,178,250.8,181.1z M454.6,459.6V156.3
	c0-15-12.2-27.2-27.2-27.2h-53c-34.7,0-62.9,28.2-62.9,62.9v267.6c0,15,12.2,27.2,27.2,27.2h88.7
	C442.4,486.9,454.6,474.7,454.6,459.6z"/>
  <path fill="#fff" d=" M90.6,311.3h118.2
	c4.8,0,8.7-3.9,8.7-8.7s-3.9-8.7-8.7-8.7H90.6c-4.8,0-8.7,3.9-8.7,8.7S85.7,311.3,90.6,311.3z  M208.8,395.1c4.8,0,8.7-3.9,8.7-8.7
	s-3.9-8.7-8.7-8.7H90.6c-4.8,0-8.7,3.9-8.7,8.7s3.9,8.7,8.7,8.7H208.8z M493,486.9c0,4.4-3.6,8-8,8h-30.4c-4.4,0-8-3.6-8-8V89.4
	H295.6v3.9c0,47.2-12.1,90-36.1,127.4v258.1h99.6h71.5c4.4,0,8,3.6,8,8s-3.6,8-8,8h-71.5H253.6c-0.9,0.3-1.8,0.5-2.8,0.5H173
	c0,0,0,0,0,0h-44.4c0,0,0,0,0,0H50.9c0,0,0,0,0,0H23.5c-4.8,0-8.7-3.9-8.7-8.7s3.9-8.7,8.7-8.7h18.6V181.1c0-7.9,6.4-14.3,14.3-14.3
	h188.8c7.9,0,14.3,6.4,14.3,14.3v6.5c13.3-28.7,20.1-60.3,20.1-94.3V81.4c0-4.4,3.6-8,8-8h166.9c4.4,0,8,3.6,8,8v397.4H485
	C489.4,478.9,493,482.4,493,486.9z M59.6,477.8h60.3v-24.6c0-4.8,3.9-8.7,8.7-8.7H173c4.8,0,8.7,3.9,8.7,8.7v24.6h58.8c0,0,0,0,0,0
	h1.5V184.3H59.6V477.8z M164.3,462h-27v15.8h27V462z  M430.7,216.5c-4.4,0-8,3.6-8,8v15.8
	H311.5c-4.4,0-8,3.6-8,8s3.6,8,8,8h119.2c4.4,0,8-3.6,8-8v-23.8C438.7,220.1,435.1,216.5,430.7,216.5z 
	 M430.7,97.3c-4.4,0-8,3.6-8,8V145H311.5c-4.4,0-8,3.6-8,8s3.6,8,8,8h119.2c4.4,0,8-3.6,8-8v-47.7
	C438.7,100.8,435.1,97.3,430.7,97.3z"/>
</svg>
