<svg xmlns="http://www.w3.org/2000/svg" fill="none" viewBox="0 0 32 32" id="Close--Streamline-Ionic-Filled" height="32" width="32">
  <desc>
    Close Streamline Icon: https://streamlinehq.com
  </desc>
  <path fill="#f3150a" d="M19.912 16.00013333333333 30.86153333333333 5.0504c0.5196 -0.5186666666666666 0.8119333333333333 -1.2226666666666666 0.8125333333333333 -1.9568666666666665 0.0007999999999999999 -0.7343999999999999 -0.29033333333333333 -1.4388666666666667 -0.8090666666666666 -1.9584000000000001 -0.5187999999999999 -0.5196666666666666 -1.2227999999999999 -0.8120666666666666 -1.9570666666666665 -0.8126666666666666 -0.7342 -0.0006 -1.4386666666666665 0.2904 -1.9582666666666664 0.8091999999999999L16 12.081266666666666 5.0504 1.1316666666666666C4.530733333333333 0.612 3.8258666666666667 0.31999999999999995 3.0910666666666664 0.31999999999999995c-0.7351333333333333 0 -1.4398 0.292 -1.9595333333333331 0.8116666666666666C0.6118666666666666 1.6512666666666667 0.31999999999999995 2.3560666666666665 0.31999999999999995 3.0910666666666664c0 0.7349333333333333 0.29186666666666666 1.4396666666666667 0.8115333333333333 1.9593333333333334l10.949733333333334 10.949733333333334L1.1315333333333333 26.949666666666666C0.6118666666666666 27.469266666666663 0.31999999999999995 28.174066666666665 0.31999999999999995 28.909066666666664c0 0.7349333333333333 0.29186666666666666 1.4398 0.8115333333333333 1.9594666666666667 0.5197333333333333 0.5196 1.2244 0.8114666666666667 1.9595333333333331 0.8114666666666667 0.7348 0 1.4396666666666667 -0.29186666666666666 1.9593333333333334 -0.8114666666666667L16 19.918866666666666l10.949666666666666 10.949666666666666c0.5196 0.5196 1.2244666666666666 0.8114666666666667 1.9593999999999998 0.8114666666666667 0.7348666666666667 0 1.4396666666666667 -0.29186666666666666 1.9593333333333334 -0.8114666666666667 0.5196 -0.5196666666666666 0.8116 -1.2245333333333333 0.8116 -1.9594666666666667 0 -0.735 -0.292 -1.4398 -0.8116 -1.9593999999999998L19.91193333333333 16.00013333333333Z" stroke-width="0.6667"></path>
</svg>