<svg xmlns="http://www.w3.org/2000/svg" xmlns:xlink="http://www.w3.org/1999/xlink" width="100" zoomAndPan="magnify" viewBox="0 0 75 74.999997" height="100" preserveAspectRatio="xMidYMid meet" version="1.0"><defs><clipPath id="3617d981b7"><path d="M 9.503906 8.058594 L 65.753906 8.058594 L 65.753906 67.308594 L 9.503906 67.308594 Z M 9.503906 8.058594 " clip-rule="nonzero"/></clipPath></defs><g clip-path="url(#3617d981b7)"><path fill="#ff3621" d="M 65.753906 51.875 L 65.753906 41.476562 L 64.628906 40.773438 L 37.699219 55.527344 L 12.167969 41.476562 L 12.167969 35.433594 L 37.699219 49.34375 L 65.894531 34.027344 L 65.894531 23.769531 L 64.769531 23.066406 L 37.699219 37.964844 L 13.148438 24.472656 L 37.699219 10.984375 L 57.476562 21.804688 L 59.019531 20.960938 L 59.019531 19.835938 L 37.699219 8.171875 L 9.503906 23.488281 L 9.503906 25.035156 L 37.699219 40.492188 L 63.226562 26.441406 L 63.226562 32.625 L 37.699219 46.675781 L 10.625 31.78125 L 9.503906 32.484375 L 9.503906 42.882812 L 37.699219 58.199219 L 63.226562 44.285156 L 63.226562 50.328125 L 37.699219 64.382812 L 10.625 49.625 L 9.503906 50.328125 L 9.503906 51.875 L 37.699219 67.191406 Z M 65.753906 51.875 " fill-opacity="1" fill-rule="nonzero"/></g></svg>