<svg xmlns="http://www.w3.org/2000/svg" viewBox="0 0 512 512"><g id="Cloud_all_time_access"><path d="m113.86 132.3908a67.0237 67.0237 0 0 0 -67.021 67.5352 6.5008 6.5008 0 0 0 6.4991 6.4521h.0493a6.5 6.5 0 0 0 6.4516-6.5478 54.0234 54.0234 0 0 1 54.0035-54.4395l.3593.001h.0181a6.5 6.5 0 0 0 .0171-13z" fill="#f2600c"/><path d="m499.4785 352.27a6.5009 6.5009 0 0 0 -5.99-3.9765h-11.9871a143.1842 143.1842 0 1 0 -275.7058 56.4091h-31.5378a24.0376 24.0376 0 0 0 -46.2871 0h-14.062a10.4674 10.4674 0 0 1 -10.4556-10.455v-28.244a24.0372 24.0372 0 0 0 0-46.2869v-22.1367a100.6461 100.6461 0 0 0 12.148.7376h48.48a6.5 6.5 0 0 0 0-13h-48.48c-47.38 0-86.2081-38.0205-86.5547-84.7539a85.4032 85.4032 0 0 1 85.4008-86.0528l.2388.001h.1148a41.8806 41.8806 0 0 0 37.8764-24.1319 95.2873 95.2873 0 0 1 172.8433 0 41.8953 41.8953 0 0 0 37.9311 24.1318h.1162l.1827-.001a85.3473 85.3473 0 0 1 83.1406 104.8712 6.5 6.5 0 1 0 12.6494 2.9981 98.386 98.386 0 0 0 -95.79-120.8692l-.2749.001h-.0791a28.8408 28.8408 0 0 1 -26.0879-16.6119 108.287 108.287 0 0 0 -196.4195 0 28.8227 28.8227 0 0 1 -26.0332 16.6133c-.0258 0-.0522 0-.0781-.001l-.3306-.001a98.4035 98.4035 0 0 0 -98.4008 99.1485c.3364 45.2893 31.9819 83.4731 74.4536 94.4692a6.6 6.6 0 0 0 -.0469.7525v23.8356a24.0371 24.0371 0 0 0 0 46.2869v28.2437a23.4815 23.4815 0 0 0 23.4556 23.455h14.062a24.0372 24.0372 0 0 0 46.2871 0h36.3208a6.536 6.536 0 0 0 1.2778-.1272q2.7368 5.1379 5.9029 10.1019a142.2363 142.2363 0 0 0 89.9062 62.6474 144.4 144.4 0 0 0 30.9517 3.3731 143.3865 143.3865 0 0 0 129.9834-83.7779 6.5 6.5 0 0 0 -11.8321-5.3867 130.1326 130.1326 0 1 1 11.7351-56.24h-10.2863a6.5 6.5 0 0 0 -4.7227 10.9658l17.3535 18.35a6.5031 6.5031 0 0 0 4.6709 2.0342h.0518a6.5 6.5 0 0 0 4.65-1.959l17.9174-18.35a6.5 6.5 0 0 0 1.3403-7.0643zm-413.5693-9.4095a11.0437 11.0437 0 1 1 11.0439 11.043 11.0562 11.0562 0 0 1 -11.0439-11.043zm65.205 79.3858a11.0435 11.0435 0 1 1 11.0435-11.044 11.0561 11.0561 0 0 1 -11.0435 11.044z" fill="#f2600c"/><path d="m359.2163 348.5637h-14.4136a2.3728 2.3728 0 0 1 -2.37-2.37v-34.2737a6.5 6.5 0 1 0 -13 0v34.2735a15.3873 15.3873 0 0 0 15.37 15.37h14.4136a6.5 6.5 0 0 0 0-13z" fill="#f2600c"/><path d="m338.334 244.4562a105.7891 105.7891 0 1 0 105.789 105.7891 105.9089 105.9089 0 0 0 -105.789-105.7891zm66.2639 170.6709c-.0825-.0925-.1609-.1875-.25-.2763l-15.5273-15.5274a6.5 6.5 0 0 0 -9.1924 9.1934l15.2468 15.2468a92.296 92.296 0 0 1 -52.3518 19.1719v-21.782a6.5 6.5 0 0 0 -13 0v21.46a92.431 92.431 0 0 1 -52.58-22.8545l15.3311-15.3311a6.5 6.5 0 0 0 -9.1924-9.1933l-15.2578 15.2578a92.4257 92.4257 0 0 1 -21.5884-48.9287h21.29a6.5 6.5 0 0 0 0-13h-21.96a92.3758 92.3758 0 0 1 22.2393-58.5428l15.2771 15.2771a6.5 6.5 0 0 0 9.1924-9.1933l-15.353-15.353a92.4285 92.4285 0 0 1 52.6015-22.8746v21.86a6.5 6.5 0 0 0 13 0v-21.958c0-.0759-.0088-.1494-.0112-.2246a92.3566 92.3566 0 0 1 55.072 21.3376l-15.4661 15.4679a6.5 6.5 0 1 0 9.1923 9.1914l15.5269-15.5274c.0488-.0488.09-.1018.1372-.1516a92.4262 92.4262 0 0 1 24.1277 60.7049c-.0882-.0035-.1748-.0132-.2639-.0132h-21.9585a6.5 6.5 0 0 0 0 13h21.5522a92.5557 92.5557 0 0 1 -25.8337 53.563z" fill="#f2600c"/></g></svg>