<?xml version="1.0" encoding="UTF-8"?> <svg xmlns="http://www.w3.org/2000/svg" xmlns:xlink="http://www.w3.org/1999/xlink" width="1000" zoomAndPan="magnify" viewBox="0 0 750 749.999995" height="1000" preserveAspectRatio="xMidYMid meet" version="1.0"><defs><clipPath id="36d8dba1aa"><path d="M 359 216.191406 L 529 216.191406 L 529 553.507812 L 359 553.507812 Z M 359 216.191406 " clip-rule="nonzero"></path></clipPath></defs><path fill="#069e2d" d="M 249.867188 573.882812 C 233.0625 562.410156 214.648438 565.332031 203.339844 581.902344 C 192.027344 598.472656 196.019531 616.683594 212.824219 628.152344 C 229.59375 639.601562 247.941406 636.636719 259.25 620.066406 C 270.558594 603.496094 266.636719 585.328125 249.867188 573.882812 Z M 241.417969 586.257812 C 249.9375 592.074219 251.726562 601.554688 245.5 610.679688 C 239.269531 619.804688 229.792969 621.59375 221.269531 615.777344 C 212.683594 609.914062 210.828125 600.386719 217.058594 591.265625 C 223.28125 582.144531 232.832031 580.398438 241.417969 586.257812 Z M 241.417969 586.257812 " fill-opacity="1" fill-rule="nonzero"></path><path fill="#069e2d" d="M 208.773438 540.421875 C 208.070312 539.582031 207.269531 539.511719 206.429688 540.214844 L 191.390625 552.804688 L 182.265625 541.902344 C 174.679688 532.84375 163.84375 532.484375 153.910156 540.800781 C 145.71875 547.65625 141.601562 557.347656 152.886719 570.835938 L 169.515625 590.707031 C 170.21875 591.546875 171.019531 591.617188 171.859375 590.914062 L 217.140625 553.015625 C 217.980469 552.3125 218.054688 551.507812 217.347656 550.667969 Z M 170.707031 570.109375 L 165.574219 563.976562 C 163.4375 561.425781 160.019531 557.34375 164.695312 553.433594 C 169.863281 549.105469 173.925781 553.964844 175.414062 555.738281 L 180.550781 561.875 Z M 170.707031 570.109375 " fill-opacity="1" fill-rule="nonzero"></path><path fill="#069e2d" d="M 165.992188 472.792969 C 165.5 471.8125 164.738281 471.5625 163.757812 472.054688 L 154.101562 476.902344 C 153.125 477.390625 152.867188 478.15625 153.363281 479.132812 L 164.074219 500.472656 L 157.542969 503.753906 L 148.285156 485.316406 C 147.796875 484.339844 146.992188 484.101562 146.050781 484.574219 L 137.125 489.054688 C 136.140625 489.550781 135.890625 490.3125 136.382812 491.292969 L 145.632812 509.730469 L 133.589844 515.777344 L 122.875 494.4375 C 122.382812 493.457031 121.621094 493.203125 120.636719 493.695312 L 110.988281 498.542969 C 110.003906 499.035156 109.75 499.796875 110.246094 500.777344 L 127.660156 535.476562 C 128.152344 536.453125 128.914062 536.707031 129.894531 536.21875 L 182.664062 509.726562 C 183.648438 509.238281 183.902344 508.472656 183.40625 507.492188 Z M 165.992188 472.792969 " fill-opacity="1" fill-rule="nonzero"></path><path fill="#069e2d" d="M 159.316406 451.40625 C 159.082031 450.335938 158.402344 449.902344 157.332031 450.136719 L 128.261719 456.546875 L 151.527344 416.066406 C 153.308594 413.015625 151.875 411.417969 149.097656 412.03125 L 91.277344 424.777344 C 90.207031 425.011719 89.773438 425.691406 90.007812 426.761719 L 92.746094 439.175781 C 92.984375 440.242188 93.660156 440.675781 94.730469 440.441406 L 122.769531 434.261719 L 100.226562 474.992188 C 98.742188 477.691406 100.105469 479.175781 102.886719 478.566406 L 160.785156 465.800781 C 161.855469 465.566406 162.289062 464.890625 162.050781 463.816406 Z M 159.316406 451.40625 " fill-opacity="1" fill-rule="nonzero"></path><path fill="#04773b" d="M 155.132812 359.015625 C 156.871094 347.324219 154.183594 334.15625 139.800781 332.027344 C 128.351562 330.328125 122.226562 337.585938 117.765625 344.398438 C 113.308594 351.210938 110.640625 356.722656 106.949219 356.179688 C 104.175781 355.769531 103.65625 352.898438 104.21875 349.121094 C 104.765625 345.425781 106.386719 340.863281 108.347656 337.050781 C 108.859375 336.101562 108.523438 335.308594 107.605469 334.847656 L 97.925781 330.371094 C 96.886719 329.890625 96.199219 330.117188 95.722656 331.109375 C 93.160156 336.480469 91.097656 342.910156 90.394531 347.644531 C 88.683594 359.175781 92.136719 371.058594 105.632812 373.0625 C 115.273438 374.492188 121.011719 369.019531 125.769531 362.417969 C 130.578125 355.742188 133.9375 348.316406 138.035156 348.925781 C 141.167969 349.390625 141.878906 352.617188 141.25 356.871094 C 140.585938 361.332031 138.464844 367.054688 135.957031 372.058594 C 135.488281 373.015625 135.621094 373.773438 136.652344 374.296875 L 146.894531 379.425781 C 147.929688 379.910156 148.632812 379.605469 149.117188 378.566406 C 152.351562 371.410156 154.230469 365.121094 155.132812 359.015625 Z M 155.132812 359.015625 " fill-opacity="1" fill-rule="nonzero"></path><path fill="#04773b" d="M 171.34375 301.820312 C 179.46875 283.164062 173.160156 265.621094 154.765625 257.609375 C 136.375 249.597656 119.230469 256.925781 111.105469 275.578125 C 102.996094 294.195312 109.339844 311.664062 127.730469 319.671875 C 146.125 327.6875 163.234375 320.433594 171.34375 301.820312 Z M 157.605469 295.832031 C 153.488281 305.292969 144.507812 308.820312 134.378906 304.410156 C 124.253906 299.996094 120.722656 291.019531 124.84375 281.5625 C 128.996094 272.03125 138.007812 268.425781 148.132812 272.839844 C 158.261719 277.25 161.761719 286.300781 157.605469 295.832031 Z M 157.605469 295.832031 " fill-opacity="1" fill-rule="nonzero"></path><path fill="#04773b" d="M 205.457031 246.964844 C 215.347656 235.28125 218.667969 221.171875 206.363281 210.753906 L 176.074219 185.121094 C 175.238281 184.414062 174.410156 184.511719 173.730469 185.320312 L 164.863281 195.796875 C 164.152344 196.632812 164.222656 197.4375 165.058594 198.144531 L 191.960938 220.914062 C 198.503906 226.449219 198.765625 231.671875 194.019531 237.285156 C 189.347656 242.800781 184.101562 243.472656 177.558594 237.9375 L 150.652344 215.160156 C 149.816406 214.453125 149.015625 214.519531 148.308594 215.355469 L 139.441406 225.832031 C 138.757812 226.640625 138.800781 227.472656 139.636719 228.183594 L 169.917969 253.8125 C 182.226562 264.226562 195.851562 258.3125 205.457031 246.964844 Z M 205.457031 246.964844 " fill-opacity="1" fill-rule="nonzero"></path><path fill="#04773b" d="M 247.644531 177.996094 C 250.875 171.871094 249.972656 164.410156 244.859375 156.980469 C 238.800781 148.1875 229.53125 143.179688 215.050781 153.152344 L 193.710938 167.855469 C 192.8125 168.476562 192.664062 169.265625 193.285156 170.164062 L 226.78125 218.796875 C 227.402344 219.699219 228.195312 219.84375 229.097656 219.21875 L 240.101562 211.644531 C 241.003906 211.019531 241.152344 210.226562 240.527344 209.328125 L 229.402344 193.175781 L 235.1875 189.191406 L 254.804688 199.984375 C 255.621094 200.457031 256.351562 200.445312 257.089844 199.941406 L 269.566406 191.347656 C 270.601562 190.632812 270.542969 189.6875 269.40625 189.039062 Z M 220.691406 166.429688 C 223.433594 164.539062 227.816406 161.523438 231.273438 166.539062 C 235.097656 172.089844 229.878906 175.683594 227.972656 176.996094 L 221.386719 181.535156 L 214.105469 170.96875 Z M 220.691406 166.429688 " fill-opacity="1" fill-rule="nonzero"></path><path fill="#04773b" d="M 304.796875 179.695312 C 316.101562 175.734375 323.695312 168.296875 326.78125 159.296875 C 327.113281 158.40625 326.652344 157.835938 325.558594 157.53125 L 312.792969 154.261719 C 311.789062 153.964844 311.152344 154.363281 310.820312 155.382812 C 309.144531 159.925781 305.398438 163.609375 299.839844 165.558594 C 290.105469 168.96875 281.410156 164.785156 277.757812 154.363281 C 274.105469 143.9375 278.285156 135.242188 288.019531 131.832031 C 293.578125 129.886719 298.800781 130.417969 302.949219 132.925781 C 303.839844 133.515625 304.585938 133.425781 305.191406 132.570312 L 313.121094 122.046875 C 313.785156 121.121094 313.683594 120.339844 312.761719 119.800781 C 304.683594 114.800781 294.175781 113.792969 283.0625 117.6875 C 263.898438 124.40625 255.410156 140.9375 262.042969 159.871094 C 268.683594 178.800781 285.636719 186.414062 304.796875 179.695312 Z M 304.796875 179.695312 " fill-opacity="1" fill-rule="nonzero"></path><path fill="#04773b" d="M 375.332031 165.777344 C 376.421875 165.679688 376.941406 165.0625 376.84375 163.972656 L 375.894531 153.214844 C 375.796875 152.121094 375.179688 151.605469 374.089844 151.699219 L 350.300781 153.800781 L 349.660156 146.523438 L 370.210938 144.703125 C 371.300781 144.609375 371.816406 143.949219 371.71875 142.898438 L 370.84375 132.945312 C 370.746094 131.855469 370.132812 131.339844 369.039062 131.4375 L 348.488281 133.25 L 347.300781 119.820312 L 371.085938 117.71875 C 372.179688 117.625 372.695312 117.007812 372.597656 115.914062 L 371.648438 105.15625 C 371.550781 104.0625 370.9375 103.542969 369.84375 103.644531 L 331.171875 107.058594 C 330.082031 107.15625 329.5625 107.773438 329.660156 108.867188 L 334.855469 167.679688 C 334.953125 168.773438 335.566406 169.289062 336.660156 169.195312 Z M 375.332031 165.777344 " fill-opacity="1" fill-rule="nonzero"></path><path fill="#069e2d" d="M 431.058594 173.773438 C 453.851562 180.175781 466.933594 171.742188 472.191406 153.011719 C 477.535156 133.972656 470.398438 120.03125 447.914062 113.71875 L 427.816406 108.078125 C 426.761719 107.78125 426.0625 108.175781 425.761719 109.230469 L 409.808594 166.082031 C 409.511719 167.140625 409.90625 167.839844 410.960938 168.132812 Z M 438.542969 125.765625 L 444.171875 127.347656 C 455.433594 130.507812 459.183594 137.886719 456.265625 148.289062 C 453.347656 158.6875 446.214844 163.351562 434.957031 160.191406 L 429.324219 158.609375 Z M 438.542969 125.765625 " fill-opacity="1" fill-rule="nonzero"></path><path fill="#069e2d" d="M 524.441406 146.441406 C 524.683594 143.597656 522.980469 142.570312 520.582031 144.117188 L 464.941406 181.105469 C 463.882812 181.839844 463.914062 182.808594 464.960938 183.4375 L 477.519531 190.996094 C 478.28125 191.460938 479.125 191.398438 479.847656 190.835938 L 484.285156 187.394531 L 503.175781 198.769531 L 502.21875 204.304688 C 502.054688 205.203125 502.394531 205.976562 503.160156 206.4375 L 515.722656 213.996094 C 516.765625 214.625 517.632812 214.199219 517.789062 212.921875 Z M 508.265625 168.980469 L 505.433594 185.574219 L 494.894531 179.226562 Z M 508.265625 168.980469 " fill-opacity="1" fill-rule="nonzero"></path><path fill="#069e2d" d="M 536.265625 235.214844 C 537.019531 235.957031 537.851562 235.976562 538.617188 235.191406 L 571.207031 201.910156 L 580.171875 210.6875 C 580.957031 211.457031 581.761719 211.449219 582.527344 210.667969 L 590.082031 202.945312 C 590.851562 202.164062 590.84375 201.359375 590.0625 200.59375 L 560.171875 171.328125 C 559.390625 170.558594 558.585938 170.570312 557.820312 171.351562 L 550.261719 179.070312 C 549.492188 179.851562 549.5 180.65625 550.285156 181.425781 L 559.25 190.203125 L 526.664062 223.484375 C 525.894531 224.265625 525.933594 225.101562 526.6875 225.839844 Z M 536.265625 235.214844 " fill-opacity="1" fill-rule="nonzero"></path><path fill="#069e2d" d="M 618.113281 239.589844 C 619.605469 237.160156 618.542969 235.476562 615.707031 235.78125 L 549.378906 243.832031 C 548.101562 244.011719 547.695312 244.890625 548.347656 245.921875 L 556.171875 258.320312 C 556.648438 259.074219 557.429688 259.398438 558.324219 259.21875 L 563.839844 258.140625 L 575.605469 276.789062 L 572.257812 281.300781 C 571.714844 282.03125 571.667969 282.875 572.148438 283.628906 L 579.96875 296.03125 C 580.621094 297.058594 581.585938 297.074219 582.300781 295.996094 Z M 593.53125 252.460938 L 583.550781 266.015625 L 576.980469 255.605469 Z M 593.53125 252.460938 " fill-opacity="1" fill-rule="nonzero"></path><path fill="#04773b" d="M 592.140625 344.007812 C 594.550781 355.578125 601.613281 367.007812 615.847656 364.046875 C 627.179688 361.691406 630.421875 352.757812 632.257812 344.828125 C 634.09375 336.898438 634.6875 330.800781 638.347656 330.039062 C 641.089844 329.46875 642.570312 331.984375 643.34375 335.71875 C 644.105469 339.375 644.15625 344.21875 643.632812 348.476562 C 643.484375 349.542969 644.070312 350.167969 645.089844 350.289062 L 655.722656 351.148438 C 656.859375 351.242188 657.429688 350.789062 657.53125 349.691406 C 658.085938 343.769531 657.800781 337.027344 656.824219 332.332031 C 654.453125 320.925781 647.109375 310.960938 633.753906 313.738281 C 624.210938 315.722656 620.710938 322.839844 618.527344 330.675781 C 616.320312 338.605469 615.726562 346.734375 611.675781 347.578125 C 608.574219 348.222656 606.792969 345.4375 605.914062 341.222656 C 604.996094 336.8125 605.015625 330.710938 605.640625 325.144531 C 605.75 324.085938 605.359375 323.421875 604.214844 323.285156 L 592.832031 322.003906 C 591.691406 321.910156 591.136719 322.4375 591.042969 323.578125 C 590.476562 331.410156 590.886719 337.964844 592.140625 344.007812 Z M 592.140625 344.007812 " fill-opacity="1" fill-rule="nonzero"></path><path fill="#04773b" d="M 596.832031 400.066406 C 596.164062 415.363281 602.175781 428.550781 618.28125 429.253906 L 657.917969 430.984375 C 659.011719 431.027344 659.609375 430.445312 659.652344 429.390625 L 660.25 415.679688 C 660.300781 414.582031 659.757812 413.988281 658.664062 413.941406 L 623.445312 412.40625 C 614.882812 412.035156 611.480469 408.066406 611.804688 400.71875 C 612.117188 393.5 615.855469 389.761719 624.417969 390.132812 L 659.632812 391.667969 C 660.730469 391.714844 661.320312 391.171875 661.371094 390.078125 L 661.96875 376.363281 C 662.015625 375.308594 661.472656 374.675781 660.375 374.625 L 620.738281 372.898438 C 604.628906 372.199219 597.480469 385.21875 596.832031 400.066406 Z M 596.832031 400.066406 " fill-opacity="1" fill-rule="nonzero"></path><path fill="#04773b" d="M 591.792969 448.152344 C 591.433594 449.1875 591.78125 449.910156 592.816406 450.273438 L 613.941406 457.652344 L 593.820312 465.507812 C 592.722656 465.941406 592.457031 466.707031 593.058594 467.691406 L 604.003906 486.613281 L 582.722656 479.183594 C 581.6875 478.820312 580.964844 479.171875 580.601562 480.203125 L 576.359375 492.359375 C 575.996094 493.394531 576.34375 494.117188 577.378906 494.476562 L 633.355469 514.03125 C 636.269531 515.046875 637.667969 513.253906 636.035156 510.664062 L 612.601562 473.316406 L 654.136719 458.828125 C 657.171875 457.777344 657.046875 455.542969 654.136719 454.523438 L 598.160156 434.976562 C 597.125 434.617188 596.402344 434.960938 596.042969 436 Z M 591.792969 448.152344 " fill-opacity="1" fill-rule="nonzero"></path><path fill="#04773b" d="M 564.066406 511.199219 C 563.40625 512.074219 563.519531 512.871094 564.398438 513.527344 L 582.289062 526.96875 L 560.734375 528.351562 C 559.554688 528.429688 559.066406 529.082031 559.34375 530.199219 L 564.03125 551.546875 L 546.011719 538.011719 C 545.132812 537.355469 544.339844 537.46875 543.679688 538.34375 L 535.949219 548.640625 C 535.289062 549.511719 535.402344 550.3125 536.28125 550.96875 L 583.6875 586.574219 C 586.15625 588.429688 588.03125 587.148438 587.261719 584.183594 L 576.261719 541.484375 L 620.234375 540.28125 C 623.441406 540.199219 624.003906 538.03125 621.539062 536.179688 L 574.128906 500.570312 C 573.25 499.917969 572.457031 500.027344 571.796875 500.90625 Z M 564.066406 511.199219 " fill-opacity="1" fill-rule="nonzero"></path><path fill="#04773b" d="M 515.796875 564.390625 C 514.964844 565.105469 514.90625 565.910156 515.621094 566.742188 L 554.113281 611.515625 C 554.828125 612.347656 555.632812 612.40625 556.464844 611.691406 L 566.53125 603.035156 C 567.363281 602.320312 567.425781 601.515625 566.710938 600.683594 L 528.214844 555.910156 C 527.5 555.078125 526.699219 555.019531 525.867188 555.734375 Z M 515.796875 564.390625 " fill-opacity="1" fill-rule="nonzero"></path><path fill="#04773b" d="M 485.597656 584.992188 C 484.699219 585.542969 484.472656 586.34375 485.042969 587.28125 L 509.257812 627.074219 L 498.542969 633.597656 C 497.605469 634.164062 497.414062 634.949219 497.984375 635.886719 L 503.597656 645.109375 C 504.167969 646.046875 504.949219 646.238281 505.886719 645.667969 L 541.617188 623.921875 C 542.554688 623.351562 542.746094 622.570312 542.175781 621.632812 L 536.558594 612.40625 C 535.992188 611.46875 535.207031 611.28125 534.269531 611.847656 L 523.554688 618.375 L 499.335938 578.582031 C 498.765625 577.644531 497.949219 577.476562 497.046875 578.027344 Z M 485.597656 584.992188 " fill-opacity="1" fill-rule="nonzero"></path><path fill="#069e2d" d="M 333.398438 483.59375 L 261.4375 441.582031 L 261.4375 326.539062 L 333.398438 285.210938 Z M 238.101562 312.246094 L 238.101562 456.363281 L 355.960938 524.628906 L 355.960938 243.976562 Z M 238.101562 312.246094 " fill-opacity="1" fill-rule="nonzero"></path><path stroke-linecap="round" transform="matrix(0.339087, 0, 0, 0.339087, 201.679709, 216.189984)" fill-opacity="1" fill="#069e2d" fill-rule="nonzero" stroke-linejoin="round" d="M 186.944958 655.878475 L 377.749147 767.275958 L 377.749147 219.366229 L 186.944958 328.955086 Z M 399.164651 804.565891 L 165.529454 668.170214 L 165.529454 316.559669 L 399.164651 182.375813 Z M 118.113525 699.446756 L 444.288119 888.361681 L 444.288119 97.842749 L 118.113525 286.757674 Z M 465.703623 925.513375 L 96.698021 711.796095 L 96.698021 274.419855 L 465.703623 60.691055 Z M 465.703623 925.513375 " stroke="#069e2d" stroke-width="15" stroke-opacity="1" stroke-miterlimit="4"></path><path fill="#04773b" d="M 384.550781 240.503906 L 384.550781 394.765625 L 479.078125 394.765625 L 479.078125 444.09375 L 408.328125 485.5 L 408.328125 418.386719 L 384.550781 418.386719 L 384.550781 528.105469 L 503.582031 457.847656 L 503.582031 369.953125 L 408.183594 369.953125 L 408.183594 282.757812 L 479.65625 325.109375 L 479.65625 346.632812 L 503.582031 346.632812 L 503.582031 309.863281 Z M 384.550781 240.503906 " fill-opacity="1" fill-rule="nonzero"></path><g clip-path="url(#36d8dba1aa)"><path stroke-linecap="butt" transform="matrix(0.339087, 0, 0, 0.339087, 201.679723, 216.190001)" fill="none" stroke-linejoin="miter" d="M 539.304209 71.704029 L 539.304209 526.636565 L 818.07437 526.636565 L 818.07437 672.109915 L 609.425865 794.220899 L 609.425865 596.297425 L 539.304209 596.297425 L 539.304209 919.868494 L 890.338729 712.671497 L 890.338729 453.462133 L 608.999629 453.462133 L 608.999629 196.314832 L 819.779316 321.213633 L 819.779316 384.688305 L 890.338729 384.688305 L 890.338729 276.251447 Z M 539.304209 71.704029 " stroke="#04773b" stroke-width="13" stroke-opacity="1" stroke-miterlimit="4"></path></g><path stroke-linecap="round" transform="matrix(0.339087, 0, 0, 0.339087, 201.679709, 216.189984)" fill-opacity="1" fill="#04773b" fill-rule="nonzero" stroke-linejoin="round" d="M 550.017809 607.252955 L 550.017809 900.883818 L 879.625335 706.32414 L 879.625335 464.429171 L 598.286211 464.429171 L 598.286211 177.284015 L 830.50446 314.877762 L 830.50446 373.721438 L 879.625335 373.721438 L 879.625335 282.633548 L 550.017809 90.550649 L 550.017809 515.658189 L 828.776474 515.658189 L 828.776474 678.492049 L 598.723968 813.12518 L 598.723968 607.252955 Z M 528.602305 938.853425 L 528.602305 585.319056 L 620.127952 585.319056 L 620.127952 775.328371 L 807.36097 665.751034 L 807.36097 537.603609 L 528.602305 537.603609 L 528.602305 52.83448 L 901.052359 269.857973 L 901.052359 395.655337 L 809.077436 395.655337 L 809.077436 327.538138 L 619.701715 215.322742 L 619.701715 442.495272 L 901.052359 442.495272 L 901.052359 719.007555 Z M 528.602305 938.853425 " stroke="#04773b" stroke-width="7" stroke-opacity="1" stroke-miterlimit="4"></path></svg> 