<svg xmlns="http://www.w3.org/2000/svg" version="1.1" viewBox="0 0 1000 1000">
  <!-- Generator: Adobe Illustrator 29.5.1, SVG Export Plug-In . SVG Version: 2.1.0 Build 141)  -->
  <defs fill="#f2600c">
    <style>
      .st0 {
        display: none;
      }

      .st1 {
        stroke: #333333;
        stroke-linecap: round;
        stroke-linejoin: round;
        stroke-width: 16px;
      }
    </style>
  </defs>
  <g id="Layer_1" class="st0">
    <path d="M750.1,505H249.9c-82.1,0-148.9-66.8-148.9-148.9s63.2-145.3,142.3-148.8c17.6-80.4,97-131.3,177.4-113.7,48.2,10.5,88.1,44.3,106.5,90.2,4.4-.4,8.8-.6,13.2-.6,45.5,0,88.6,20.8,116.8,56.5,26.4-21.1,59.1-32.6,92.9-32.5,82.1,0,148.9,66.9,148.9,148.9s-66.8,148.9-148.9,148.9ZM250.1,227.1h-.2c-71.2,0-128.8,57.8-128.9,128.9,0,71.1,57.8,128.9,128.9,128.9h500.1c71.1,0,128.9-57.8,128.9-128.9,0-71.2-57.7-128.9-128.9-128.9-32.6,0-63.9,12.3-87.8,34.5-4,3.8-10.4,3.5-14.1-.5-.3-.4-.7-.8-1-1.2-27.7-40.9-76.3-62.5-125.2-55.5-4.8.7-9.4-2.1-10.9-6.7-22.9-67.5-96.1-103.6-163.6-80.8-45.3,15.4-78.4,54.5-86,101.8-.8,4.9-5,8.4-9.9,8.4h-1.6Z" fill="#f2600c"/>
    <path d="M280.5,734.2c-25.5,0-46.2-20.7-46.2-46.2,0-25.5,20.7-46.2,46.2-46.2,25.5,0,46.2,20.7,46.2,46.2h0c0,25.5-20.7,46.2-46.2,46.2ZM280.5,661.8c-14.5,0-26.2,11.7-26.2,26.2,0,14.5,11.7,26.2,26.2,26.2,14.5,0,26.2-11.7,26.2-26.2h0c0-14.5-11.7-26.2-26.2-26.2Z" fill="#f2600c"/>
    <path d="M719.5,734.2c-25.5,0-46.2-20.7-46.2-46.2,0-25.5,20.7-46.2,46.2-46.2,25.5,0,46.2,20.7,46.2,46.2h0c0,25.5-20.7,46.2-46.2,46.2ZM719.5,661.8c-14.5,0-26.2,11.7-26.2,26.2,0,14.5,11.7,26.2,26.2,26.2,14.5,0,26.2-11.7,26.2-26.2h0c0-14.5-11.7-26.2-26.2-26.2Z" fill="#f2600c"/>
    <path d="M280.5,776.5c-48.9,0-88.5-39.6-88.5-88.5s39.6-88.5,88.5-88.5,88.5,39.6,88.5,88.5h0c0,48.9-39.6,88.4-88.5,88.5ZM280.5,619.5c-37.8,0-68.5,30.7-68.5,68.5s30.7,68.5,68.5,68.5,68.5-30.6,68.5-68.5c0-37.8-30.7-68.4-68.5-68.5Z" fill="#f2600c"/>
    <path d="M719.5,776.5c-48.9,0-88.5-39.6-88.5-88.5s39.6-88.5,88.5-88.5,88.5,39.6,88.5,88.5h0c0,48.9-39.6,88.4-88.5,88.5ZM719.5,619.5c-37.8,0-68.5,30.7-68.5,68.5s30.7,68.5,68.5,68.5,68.5-30.6,68.5-68.5c0-37.8-30.7-68.4-68.5-68.5Z" fill="#f2600c"/>
    <path d="M500,861.3c-36.2,0-65.5-29.3-65.5-65.5,0-36.2,29.3-65.5,65.5-65.5s65.5,29.3,65.5,65.5c0,36.2-29.4,65.5-65.5,65.5h0ZM500,750.3c-25.1,0-45.5,20.4-45.5,45.5,0,25.1,20.4,45.5,45.5,45.5,25.1,0,45.5-20.4,45.5-45.5h0c0-25.1-20.4-45.5-45.5-45.5h0Z" fill="#f2600c"/>
    <path d="M500,910c-63.1,0-114.2-51.1-114.2-114.2,0-63.1,51.1-114.2,114.2-114.2s114.2,51.1,114.2,114.2h0c0,63.1-51.2,114.2-114.2,114.2h0ZM500,701.5c-52,0-94.2,42.2-94.2,94.2s42.2,94.2,94.2,94.2,94.2-42.2,94.2-94.2h0c0-52-42.2-94.2-94.2-94.2h0Z" fill="#f2600c"/>
    <path d="M280.5,619.5c-5.5,0-10-4.5-10-10v-159c0-5.5,4.5-10,10-10s10,4.5,10,10v159c0,5.5-4.5,10-10,10Z" fill="#f2600c"/>
    <path d="M500,701.5c-5.5,0-10-4.5-10-10v-259.3c0-5.5,4.5-10,10-10s10,4.5,10,10v259.3c0,5.5-4.5,10-10,10Z" fill="#f2600c"/>
    <path d="M719.5,619.5c-5.5,0-10-4.5-10-10v-159c0-5.5,4.5-10,10-10s10,4.5,10,10v159c0,5.5-4.5,10-10,10Z" fill="#f2600c"/>
    <path d="M280.5,460.5c-25.5,0-46.2-20.7-46.2-46.2,0-25.5,20.7-46.2,46.2-46.2s46.2,20.7,46.2,46.2c0,25.5-20.7,46.2-46.2,46.2ZM280.5,388.1c-14.5,0-26.2,11.7-26.2,26.2,0,14.5,11.7,26.2,26.2,26.2s26.2-11.7,26.2-26.2c0-14.5-11.7-26.2-26.2-26.2Z" fill="#f2600c"/>
    <path d="M500,442.2c-36.2,0-65.5-29.3-65.5-65.5,0-36.2,29.3-65.5,65.5-65.5,36.2,0,65.5,29.3,65.5,65.5,0,36.2-29.4,65.5-65.5,65.5h0ZM500,331.2c-25.1,0-45.5,20.4-45.5,45.5,0,25.1,20.4,45.5,45.5,45.5,25.1,0,45.5-20.4,45.5-45.5,0-25.1-20.4-45.5-45.5-45.6h0Z" fill="#f2600c"/>
    <path d="M719.5,460.5c-25.5,0-46.2-20.7-46.2-46.2s20.7-46.2,46.2-46.2,46.2,20.7,46.2,46.2c0,25.5-20.7,46.2-46.2,46.2ZM719.5,388.1c-14.5,0-26.2,11.7-26.2,26.2s11.7,26.2,26.2,26.2,26.2-11.7,26.2-26.2c0-14.5-11.7-26.2-26.2-26.2Z" fill="#f2600c"/>
  </g>
  <g id="Layer_2">
    <g id="Layer_x5F_1">
      <path class="st1" d="M911.5,679.7c-12.3-12.3-29.3-19.9-48.1-19.9s-30.9,5.6-42.5,14.9l-73.5-48.4c-1.6,1.8-3.2,3.5-4.9,5.2-7.7,8-15.9,15.2-24.7,21.6l81,53.4c-2.2,6.7-3.4,13.8-3.4,21.3,0,18.8,7.6,35.8,19.9,48.1s29.3,19.9,48.1,19.9,35.8-7.6,48.1-19.9c12.3-12.3,19.9-29.3,19.9-48.1s-7.6-35.8-19.9-48.1ZM884.1,748.4c-5.3,5.3-12.5,8.5-20.6,8.5s-15.3-3.3-20.6-8.5c-5.3-5.3-8.5-12.6-8.5-20.6s3.3-15.3,8.5-20.6c5.3-5.3,12.6-8.5,20.6-8.5s15.3,3.3,20.6,8.5c5.3,5.3,8.5,12.6,8.5,20.6s-3.3,15.3-8.5,20.6Z" fill="#f2600c"/>
      <path class="st1" d="M911.5,194.2c-12.3-12.3-29.3-19.9-48.1-19.9s-35.8,7.6-48.1,19.9-19.9,29.3-19.9,48.1,2.1,19.2,5.9,27.7l-96.2,63.4c3.4,2,6.8,4.2,10.1,6.4,8.1,5.5,15.7,11.7,22.7,18.3l88.9-58.6c10.6,6.8,23.1,10.7,36.6,10.7s35.8-7.6,48.1-19.9c12.3-12.3,19.9-29.3,19.9-48.1s-7.6-35.8-19.9-48.1ZM884.1,262.8c-5.3,5.3-12.5,8.5-20.6,8.5s-15.3-3.3-20.6-8.5c-5.3-5.3-8.5-12.6-8.5-20.6s3.3-15.3,8.5-20.6c5.3-5.3,12.6-8.5,20.6-8.5s15.3,3.3,20.6,8.5,8.5,12.6,8.5,20.6-3.3,15.3-8.5,20.6Z" fill="#f2600c"/>
      <path class="st1" d="M771.5,435.1c-12.6-35.4-35.8-63.9-64.3-83.5-28.5-19.5-62.4-30.2-96.7-30.2s-24,1.3-35.8,4c-11.9-28.9-31-53.8-55-72.4-28.5-22-63.7-35-101.8-35s-73.3,13-101.8,35c-24,18.5-43.1,43.5-55,72.4-11.8-2.7-23.8-4-35.8-4-34.3,0-68.2,10.7-96.7,30.2-28.6,19.6-51.7,48-64.3,83.5-6.8,18.9-10.5,39.7-10.5,62.2,0,48.5,19,92.4,49.7,124.3,30.9,32.1,73.6,51.9,120.7,51.9h387.5c47.1,0,89.8-19.8,120.7-51.9,30.7-31.9,49.7-75.8,49.7-124.3s-3.8-43.3-10.5-62.2ZM704.4,594.7c-23.8,24.7-56.6,39.9-92.8,39.9H224.1c-36.2,0-69-15.3-92.8-39.9-24-24.9-38.8-59.3-38.8-97.4s3-34.4,8.2-49.2c9.8-27.4,27.6-49.4,49.6-64.5,22.1-15.1,48.3-23.4,74.8-23.4s28,2.3,41.5,7.1l19.4,6.9,5.7-19.8c8.3-28.7,25.3-53.4,47.9-70.8,21.8-16.8,48.8-26.8,78.1-26.8s56.3,10,78.1,26.8c22.6,17.4,39.6,42.1,47.9,70.8l5.7,19.8,19.4-6.9c13.5-4.8,27.5-7.1,41.5-7.1,26.5,0,52.8,8.3,74.8,23.4,22,15.1,39.8,37.1,49.6,64.5,5.3,14.8,8.2,31.3,8.2,49.2,0,38.1-14.8,72.5-38.8,97.4Z" fill="#f2600c"/>
      <path class="st1" d="M539.3,489l139.8-92.2c-.7-.5-1.3-.9-2-1.4-12-8.2-25.4-14.2-39.5-17.6l-121.5,80.1c0,.2.2.3.2.5-3.2-6.2-7.4-11.9-12.3-16.8-12.3-12.2-29.2-19.8-47.9-19.8s-35.6,7.6-47.9,19.8-19.8,29.2-19.8,47.9,7.6,35.6,19.8,47.9c12.2,12.3,29.2,19.8,47.9,19.8s35.6-7.6,47.9-19.8c5-5,9.2-10.7,12.4-17l138.4,91.2c12.9-5.4,24.9-13.2,35.3-23.1l-150.9-99.5ZM476.7,510c-5.2,5.2-12.4,8.5-20.4,8.5s-15.2-3.2-20.4-8.5c-5.2-5.2-8.5-12.5-8.5-20.4s3.2-15.2,8.5-20.4c5.2-5.2,12.5-8.5,20.4-8.5s15.2,3.2,20.4,8.5c5.2,5.2,8.5,12.4,8.5,20.4s-3.2,15.2-8.5,20.4Z" fill="#f2600c"/>
    </g>
  </g>
</svg>